/* XPM */
static char *result[] = {
/* columns rows colors chars-per-pixel */
"64 64 201 2 ",
"   c #05052B",
".  c #07062D",
"X  c #06062D",
"o  c #05052C",
"O  c #05052A",
"+  c #06052D",
"@  c #07062F",
"#  c #06062E",
"$  c #07062E",
"%  c #080731",
"&  c #08082F",
"*  c #080832",
"=  c #06062C",
"-  c #08072F",
";  c #05052D",
":  c #090833",
">  c #06052F",
",  c #080831",
"<  c #050529",
"1  c #080830",
"2  c #08072E",
"3  c #07072E",
"4  c #06052C",
"5  c #080732",
"6  c #06052E",
"7  c #080631",
"8  c #06052B",
"9  c #05042C",
"0  c #080632",
"q  c #080733",
"w  c #060530",
"e  c #07062C",
"r  c #080730",
"t  c #070730",
"y  c #070630",
"u  c #05042E",
"i  c #070631",
"p  c #05042B",
"a  c #090733",
"s  c #06062F",
"d  c #06062B",
"f  c #090831",
"g  c #05042D",
"h  c #120E2A",
"j  c #4A3C24",
"k  c #765F1A",
"l  c #947715",
"z  c #A78610",
"x  c #AB890F",
"c  c #A48310",
"v  c #8E7213",
"b  c #69551A",
"n  c #392E22",
"m  c #0C0A2A",
"M  c #0B0A2A",
"N  c #423521",
"B  c #8D7114",
"V  c #D5AA07",
"C  c #F7C601",
"Z  c #FFCC00",
"A  c #EFC003",
"S  c #CBA309",
"D  c #7D6416",
"F  c #272025",
"G  c #07072B",
"H  c #372D22",
"J  c #C49D0A",
"K  c #FBC901",
"L  c #F1C102",
"P  c #B28E0D",
"I  c #221D2D",
"U  c #120F29",
"Y  c #917513",
"T  c #F5C402",
"R  c #EDBD04",
"E  c #614E1E",
"W  c #1D182C",
"Q  c #CAA10A",
"!  c #120F2A",
"~  c #282027",
"^  c #D7AC07",
"/  c #B8940C",
"(  c #1B162B",
")  c #221C27",
"_  c #C59E0A",
"`  c #9F8012",
"'  c #0A082C",
"]  c #080833",
"[  c #C9A109",
"{  c #FECB00",
"}  c #816717",
"|  c #796117",
" . c #FDCA00",
".. c #EDBE03",
"X. c #4F401E",
"o. c #07072F",
"O. c #282125",
"+. c #F0C003",
"@. c #E1B405",
"#. c #987A12",
"$. c #6A551A",
"%. c #060630",
"&. c #201B26",
"*. c #ECBD03",
"=. c #AE8B0D",
"-. c #2A2325",
";. c #06062A",
":. c #E5B704",
">. c #45381F",
",. c #382D25",
"<. c #FCCA01",
"1. c #A98810",
"2. c #302727",
"3. c #68541A",
"4. c #F9C701",
"5. c #B7930C",
"6. c #55451D",
"7. c #0F0C31",
"8. c #080633",
"9. c #090832",
"0. c #09082F",
"q. c #967815",
"w. c #08072A",
"e. c #B18E0D",
"r. c #CAA209",
"t. c #56461D",
"y. c #C29C0A",
"u. c #E0B305",
"i. c #51421E",
"p. c #C7A00A",
"a. c #332A23",
"s. c #C19B0B",
"d. c #DEB106",
"f. c #65511A",
"g. c #09082A",
"h. c #AE8C0F",
"j. c #DDB106",
"k. c #6B5619",
"l. c #50411E",
"z. c #C39C0A",
"x. c #2F2724",
"c. c #B4910D",
"v. c #372D23",
"b. c #050528",
"n. c #B7930E",
"m. c #342A26",
"M. c #806716",
"N. c #F2C202",
"B. c #9D7E12",
"V. c #2E2528",
"C. c #1F1A26",
"Z. c #E5B705",
"A. c #876D15",
"S. c #171328",
"D. c #896E14",
"F. c #5C4A1C",
"G. c #262025",
"H. c #E9BB04",
"J. c #D6AB07",
"K. c #0D0B2A",
"L. c #07072D",
"P. c #705A1C",
"I. c #EEBF03",
"U. c #433623",
"Y. c #090830",
"T. c #0E0B2E",
"R. c #B8940E",
"E. c #6C5719",
"W. c #1A1527",
"Q. c #BE980B",
"!. c #957714",
"~. c #1B1627",
"^. c #A38310",
"/. c #110E29",
"(. c #1E1927",
"). c #C69F0A",
"_. c #937613",
"`. c #765F18",
"'. c #DBAF06",
"]. c #463920",
"[. c #08072D",
"{. c #AD8B10",
"}. c #F4C302",
"|. c #997A13",
" X c #251E28",
".X c #09082E",
"XX c #2F2627",
"oX c #735C18",
"OX c #CAA20A",
"+X c #63501E",
"@X c #1A162C",
"#X c #2D2524",
"$X c #59481C",
"%X c #776017",
"&X c #8A6F14",
"*X c #8F7312",
"=X c #886E14",
"-X c #725C18",
";X c #4E3F1F",
":X c #070731",
">X c #05042A",
/* pixels */
"                                                                                                                                ",
". . . . . . . . . . . . . . . . . . X     o             O   + @ X                     o # $ $ . . . . . . . . . . . . . . . . . ",
"o o o             o o o o o o o o o   % @             O O & .   X * o               = - # ; ; o o o o o o o o o     O O     o o ",
"# # X     o # # # # # # # # # # # # X : >                 , < O O 1 o                 2 3 # # # # # # # # # # # +   < <   + # # ",
"4 + % o   X 5 6 + + + + + + + + + + o                     , < O O 1 o                 o o + + + + + + + + + + + 5 7 o   @ $ 4 + ",
"< 8 % 9 O = 0 + o                                         5 O O O 1 o                                           7 7 o   @ .     ",
"< 8 % 9 O = 0 + o                                     o ; q   O O 1 o                                           7 7 o   @ .     ",
"< 8 % 9 O X 7 +                 % w X X X X X . . . . . . X o     = e . . . . . X X X X X = 3 $ O O             7 7 o   6 =     ",
"O   - + o # r   O             o t # $ y y y y y y y y @ @ @ @ y y y y y y y y y y y y y y y @ X                 y r   o y +     ",
"    o @ @ 6 9 O <             O < < O                                                                             + w y 4 u ;   ",
"                                                                                                                                ",
"O O O O O O                   O O O O O O O O O O O O O O O O O O O O O O O O O O O O O O O O                   O O O O O O O O ",
"$ $ $ $ $ . . +               o @ $ $ $ $ $ $ $ $ $ $ $ $ $ $ $ $ $ $ $ $ $ $ $ $ $ $ $ $ . $ +                 ; y $ $ $ $ $ $ ",
"            6 i p             ; 0                                                         o # y o               @ q o           ",
"@ @ @ @ @ $ =                   4 . $ @ @ @ @ @ @ @ @ @ @ a O O O r @ @ @ @ @ @ @ @ @ @ @ s #                   o 4 X @ @ @ @ @ ",
"                                O O                     O % O O O , o                                           O O             ",
"                                                          , < O O 1 o                                                           ",
"    O <   # s s s s s s s s s s s s X d O                 , < O O 1 o                 O d . . 4 O <             O 8 = e d O     ",
"      9 % 6                           @ i o               5 o <   5 o                 % r p 9 f g               $ 5 +   @ y o   ",
"        4 y # # # $ $ $ $ $ $ $ $ # $ % X               o h j k l z x c v b n m       * y   o - g O             @ q ; O y i o   ",
"                                                    M N B V C Z Z Z Z Z Z Z A S D F G * y   o - g O             @ q ; O y i o   ",
"                                                  H J K Z Z Z Z Z Z Z Z Z Z Z Z Z L P I y   o - g O             @ q ; O y i o   ",
"                                              U Y T Z Z Z Z Z Z Z Z Z Z Z Z Z Z Z Z Z R E   o - g O             @ q ; O y i o   ",
"y y y y y y y y y y y y y y y y y y y y y y W Q Z Z Z Z Z Z Z Z Z Z Z Z Z Z Z Z Z Z Z Z Z Y ! - g O             @ q ; O y i o   ",
". . . . . . . . . $ $ X       + # $ . . . ~ ^ Z Z Z Z Z Z Z Z Z Z Z Z Z Z Z Z Z Z Z Z Z Z Z / ( g O             = 2 . r - X     ",
"o o o o o o o o o ; ; 5 o   o * ; ; o o ) _ Z Z Z Z Z Z Z Z Z Z Z Z Z Z Z Z Z Z Z Z Z Z Z Z Z ` ' O             o O O   o o o   ",
"                  9   5 o   o ] 9     U [ Z Z Z Z Z Z Z Z Z Z Z Z Z Z Z Z Z Z Z Z Z Z Z Z Z Z { } O                             ",
"                  9   5 o   o ] 9     |  .Z Z Z Z Z Z Z Z Z Z Z Z Z Z Z Z Z Z Z Z Z Z Z Z Z Z Z ..X.                            ",
"y y o.            9   5 o   o ] 9   O.+.Z Z Z Z Z Z Z Z Z Z Z Z Z Z Z Z Z Z Z Z Z Z Z Z Z Z Z Z Z @.M             y % t 5 4 O   ",
"o 4 &                 % ; p o ,     #.Z Z Z Z Z Z Z Z Z Z Z Z Z Z Z Z Z Z Z Z Z Z Z Z Z Z Z Z Z Z Z $.          @ q   O %.y o   ",
"$ $ +                   $ s $ X   &.*.Z Z Z Z Z Z Z Z Z Z Z Z Z Z Z Z Z Z Z Z Z Z Z Z Z Z Z Z Z L =.&.          @ q ; O y i o   ",
"                                  v Z Z Z Z Z Z Z Z Z Z Z Z Z Z Z Z Z Z Z Z Z Z Z Z Z Z Z Z +.#.-.d             @ q ; O y i o   ",
"O O O O O O O O O O O O O O O O ;.:.Z Z Z Z Z Z Z Z Z Z Z Z Z Z Z Z Z Z Z Z Z Z Z Z Z Z  .P >.;.O O O O O O O O y q     @ i o O ",
"$ $ $ $ $ $ $ $ $ $ $ $ $ $ $ $ ,.Z Z Z Z Z Z Z Z Z Z Z Z Z Z Z Z Z Z Z Z Z Z Z Z Z <.1.2.$ $ $ $ $ $ $ $ $ $ $ t %   o X y # $ ",
"                                3.Z Z Z Z Z Z Z Z Z Z Z Z Z Z Z Z Z Z Z Z Z Z Z 4.5.6.7.@ o 9                                   ",
"f 8.q 9 O X q 9.0.9.9.9.9.9.9.9.q.Z Z Z Z Z Z Z Z Z Z Z Z Z Z Z Z Z Z Z Z Z Z S N w.  ; $ r r % % % % % % % % % % % % % % % % % ",
"O 4 % 9 O = r 4 O               e.Z Z Z Z Z Z Z Z Z Z Z Z Z Z Z Z Z Z Z Z r.t.M       O O O O                                   ",
"< 8 % 9 O X 7 +                 y.Z Z Z Z Z Z Z Z Z Z Z Z Z Z Z Z Z { u.i.                                                      ",
"< 8 % 9 O X 7 +                 p.Z Z Z Z Z Z Z Z Z Z Z Z Z Z Z Z Z _ a.                      o o o o o o o o o o o o O O O     ",
"< 8 5 o < X % +                 s.Z Z Z Z Z Z Z Z Z Z Z Z Z Z Z Z Z Z d.f.g.              @ y s @ @ @ @ @ @ @ @ @ @ @ . $ t r O ",
"O   y @ . @ @ o                 h.Z Z Z Z Z Z Z Z Z Z Z Z Z Z Z Z Z Z Z Z j.k.U           r r $ $ $ $ $ $ $ $ $ $ @ s O   o % O ",
"    O < < <                     Y Z Z Z Z Z Z Z Z Z Z Z Z Z Z Z Z Z Z Z Z Z <._ l.M         O < < < < < < < < < <   -     o % O ",
"                                f.Z Z Z Z Z Z Z Z Z Z Z Z Z Z Z Z Z Z Z Z Z Z Z <.z.l.                            ; % o   o % O ",
"o o o o o o o O                 x.Z Z Z Z Z Z Z Z Z Z Z Z Z Z Z Z Z Z Z Z Z Z Z Z Z { c.v.o o o O                 o % o   o % O ",
"s s s s s # $ X b.                @.Z Z Z Z Z Z Z Z Z Z Z Z Z Z Z Z Z Z Z Z Z Z Z Z Z Z { n.m.2 r @             <   r o   o , < ",
". . . . . . $ X b.                M.Z Z Z Z Z Z Z Z Z Z Z Z Z Z Z Z Z Z Z Z Z Z Z Z Z Z Z Z N.B.V.-             <   - ; o X r   ",
"            o O                   C.*.Z Z Z Z Z Z Z Z Z Z Z Z Z Z Z Z Z Z Z Z Z Z Z Z Z Z Z Z Z Z.A.S.          O   o # $ # o   ",
"                                    D.Z Z Z Z Z Z Z Z Z Z Z Z Z Z Z Z Z Z Z Z Z Z Z Z Z Z Z Z Z Z Z F.                          ",
"                                    G.H.Z Z Z Z Z Z Z Z Z Z Z Z Z Z Z Z Z Z Z Z Z Z Z Z Z Z Z Z Z J.K.                          ",
"      O 4 $ $ $ $ $ $ $ $ $ $ $ $ $ L.P.Z Z Z Z Z Z Z Z Z Z Z Z Z Z Z Z Z Z Z Z Z Z Z Z Z Z Z Z I.U.$ $ $ $ $ $ $ $ $ %.# 8     ",
"      O Y.9     O O O O O O O O O O   T.R.Z Z Z Z Z Z Z Z Z Z Z Z Z Z Z Z Z Z Z Z Z Z Z Z Z Z  .E.O O O O O O O O O O   # i ;   ",
"    O <   $ @ @ @ $ $ $ $ $ . . . . L.e W.Q.Z Z Z Z Z Z Z Z Z Z Z Z Z Z Z Z Z Z Z Z Z Z Z Z { !.Y.@ $ $ $ $ $ $ @ @ @ s @ o     ",
"                                          ~.J Z Z Z Z Z Z Z Z Z Z Z Z Z Z Z Z Z Z Z Z Z Z  .^./.                                ",
"                                            (.).Z Z Z Z Z Z Z Z Z Z Z Z Z Z Z Z Z Z Z Z { _.U                                   ",
"                                              g.`.H.Z Z Z Z Z Z Z Z Z Z Z Z Z Z Z Z Z '.].                                      ",
". . . . . . . . . . . . . . . . . . . . . . . . [.,.{.}.Z Z Z Z Z Z Z Z Z Z Z Z Z Z.|. X. . . . . . . . . . . . . . . . . . . . ",
"y y y y y y y y @ . $ @       6 s $ @ y y y y y $ . .XXXoXj.Z Z Z Z Z Z Z Z { OX+X@Xy y y y @ 4 O O ; s $ @ y y y y y y y y y y ",
"                    o %       , 9                 O O O   d #X$X%X&X*X=X-X;X(.d             X -   O y i 4                       ",
"                  9   5 o   o ] 9                                                           # % o o @ :X4 o                     ",
"O O O             9   5 o   o ] 9                 O O   o o o o o o o o o                   # % o o @ i 4 o                 o 9 ",
"X . t               O % o   o %   O             6 t @ s s s s s s s s s s # t               # % o   @ i 4             o + y @ @ ",
"< >Xt             O < r =   o % O <             s @ o 9                   ; q               6 i o   r i o             o # i ;   ",
"e =                     e e e 8                   = e . e e e e e e e e e =                   o . . =                     = e e ",
"                                                                                              O O                               "
};
