/* XPM */
static char *result[] = {
/* columns rows colors chars-per-pixel */
"64 64 7 1 ",
"  c #70CCC8",
". c #70CCC7",
"X c #72CCC8",
"o c #72CCC7",
"O c #71CDC8",
"+ c #73CCC8",
"@ c #71CBC7",
/* pixels */
"    .    ..  . ........XX.o....oXoXooooooo.o....oooooooooooooooo",
"X           X.X  . XXXXXXXoooXXXXXXXXXXooooooooooooooooooooooooo",
"   X       . .... XXXXX XX..XoXXXXoXooooooo.oooooooooooooooooooo",
"XXXXXXX   X XX   X.oXXXX X.oXXXXXXXXXXoXoooooooooooooooooooooooo",
"XXXXXXXXXXXXXXXX XXXXXXXXXXXXXXXXXXXXXoXoooooooooooooooooooooooo",
"XXX        X X       XXX XXXXXXXXXXXXXXXXXoooooooooooooooooooooo",
"XXX      X X  XXX XXXXXXXXXXXXXXXXXXXXXXoooooooooooooooooooooooo",
"XXXXXXX  XX   XX XXXXXXXXXXXXXXXXXXXXXXooooooooooooooooooooooooo",
"XXXXX X X   XXXXXX  XXXXXXXXXoXXXXXXXoXooXoooooooooooooooooooooo",
"XXXXXXXXXXXXXXXXXXXXXXXXXXXXXXXXXXXXXoXXoXXXXooooooooooooooooooo",
"XXXXX XXXXXXXXX XXXXXXXXXXXXXXXXXXXXXXXXXoXXXXXoXooooooooooooooo",
"XOXXXXXXXXXXXXXXXXXXXXXXXXXXXXXXXXXXXoooXXXooooooooooooooooooooo",
"OOXXXXXXXXXXXXXXXXXXXXXXXXXXXXXXXXXXooooooXooooooooooooooooooooo",
"XOXXXXXXXXXXXXXXXXXXXXXXXXXXXXXXXXXXXooXoXXooooooXoooooooooooooo",
"XXOXXXXXXXXXXXXXXXXXXXXXXXXXXXXXXXXXXXXXXXXXooooooXoXooooooooXoo",
"XXXXXXXXXXXXXXXXXXXXXXXXXXXXXXXXXXXXXXXXXXXoooXXoooooooooooooooo",
"OXXOXXXXXXXXXXXXXXXXXXXXXXXXXXXXXXXXXXoXXoXXXXXoXoooooooooooXooo",
"OOOXXXXXXXXXXXXXXXXXXXXXXXXXXXXXXXXXXXXXXXXXXXXXXoXXXXXXXXXXXXXX",
"OOOXXXXXXXXXXXXXXXXXXXXXXXXXXXXXXXXXXXXXXXXXXXXXXoXXXXXXXooooooo",
"OXXXXXXXXXXXXXXXXXXXXXXXXXXXXXXXXXXXXXXXoXXXXXoXooXoXXXooooXoooo",
"XOXXXXXXXXXXXXXXXXXXXXXXXXXXXXXXXXXXXXXXXXXXXXXXoXoXXXXXXooXoXoo",
"XOOXXXXXXXXXXXXXXXXXXXXXXXXXXXXXXXXXXXXXXXXXXXoXXXooXXXXXoXoXooo",
"XXXXXXXXXXXXXXXXXXXXXXXXXXXXXXXXXXXXXXXXoXXXXXoXXXooXXXXXXoXoooo",
"OXXXXXXXXXXXXXXXXXXXXXXXXXXXXXXXXXXXXXXXXXXXXXXoooXoXXXXXXoooXoo",
"XXXXXXXXXXXXXXXXXXXXXXXXXXXXXXXXXXXXXXXXXXXXXXXXXXXXXXXXXXXooooo",
"XXXXXXXXXXXXXXXXXXXXXXXXXXXXXXXXXXXXXXXXXXXXXXoXXXXXXXXXXXXXoXoo",
"XXXXXXXXXXXXXXXXXXXXXXXXXXXXXXXXXXXXXXXXXXXXXXXXXXXXXXXXXXXXXoXo",
"XXXXXXXXXXXXXXXXXXXXXXXXXXXXXXXXXXXXXXXXXXXXXXXXXXXXXXXXXXXXXXXo",
"OXXXXXXXXXXXXXXXXXXXXXXXXXXXXXXXXXXXXXXXXXXXXXXXXXXXXXXXXXXXXXoo",
"XXXXXXXXXXXXXXXXXXXXXXXXXXXXXXXXXXXXXXXXXXXXXXXXXXXXXXXXXXXXOXoX",
"XOXXXXXXXXXXXXXXXXXXXXXXXXXXXXXXXXXXXXXXXXXXXXXXXXXXXXXXXXXoXXoX",
"XXXXXXXXXXXXXXXXXXXXXXXXXXXXXXXXXXXXXXXXXXXXXXXXXXXXXXXXXXXXXXXX",
"XXXXXOXXXXXXXXXXXXXXXXXXXXXXXXXXXXXXXXXXXXXXXXXXXXXXXXXXXXXXXXXO",
"XXXXXXXXXXXXXXXXXXXXXXXXXOXXXXXXXXXXXXXXXXXXXXXXXXXXXXXXXXXXXXXX",
"XXXXXXXXXXXXXXXXXXXXXXXXXXXXXXXXXXXXXXXXXXXXXXXXXXXXXXXXXXXXXXXO",
"XXXXXXXXXXXXXXXXXXXXXXXXXXXXXXXXXXXXXXXXXXXXXXXXXXXXXXXXXXXXXooX",
"XXXXXXXXXXXXXXXXXXXXXXXXXXXXXXXXXXXXXXXXXXXXXXXXXXXXXOXXXXXXXXXX",
"XXXXXXXXXXXXXXXXXXXXXXXXXXXXXXXXXXXXXXXXXXXXXXXXXXXXXXOXXXXXoXOX",
"XXXXXXXXXXXXXXXXXXXXXXXXXXXXXXXXXXXXXXXXXXXXXXXXXXXXXXXXXXoXooXX",
"XXXXXXXXXXXXXXXXXXXXXXXXXXXXXXXXXXXXXXXXXXXXXXXXXXXXOXXXXXXoXXo+",
"XXXXXXXXXXXXXXXXXXXXXXXXXXXXXXXXXXXXXXXXXXXXXXXXXXXXXXOXXXXXXXOX",
"XX  XXXXX XXXXXXXXXXXXXXXXXXXXXXXXXXXXXXXXXXXXXXXXXXXXXXXXXoXOOX",
"XXXXXXXXXXXXXXXXXXXXXXXXXXXXXXXXXXXXXXXXXXXXXXXXXXXXXXXoXXXXXXXo",
"XXXX X  X XXX XXXXXXXXXXXXXXXXXXXXXXXXXXXXXXXXXXXXXXXXXXXoooXXXo",
"XXXXXXXXX X XXXXXXXXXXXXXXXXXXXXXXXXXXXXXXXXXXXXXXXXXXXXXXXXXXXX",
"XXX X XXX XXXXX X  XXXXXXXXXXXXXXXXXXXXXXXXXXXXXXXXXXXXXXXooXXoX",
"XXXXX  XX XXXXXXX  XXXXXXXXXXXXXXXXXXXXXXXXXXXXoXXXXXXXXoooXoooo",
" XX   XX      X XX   XXXXXXXXXXXXXXXXXXXXXXXXXXXXXXXXXXXXXoXXXoX",
"                     XX  XXXXXXXXXXXXXXXXXXXXoXXXXXXXXXoXXXooooo",
"                       X  X  XXXXXXXXXXXo.XoXoXoXXXoXXXXXXXXoXoo",
"XX                   XXX X  XX XXXXXXXXXXoXooXXXXXXoXXoooooooooo",
"X                     X      X  XXX.XXXXXXXXXXXXXoXoXoXXoooooooo",
"                       XXX XXXXXXXXXXXXXXXXXXXoXoXXoXooooooooooo",
"            .                    X  X   .XX XXoXXoooXooXoooooooo",
"               .         X    XX XX X XXXXXXXXXXXXoXoXoooooooooo",
"                                 X    X  XXXXXXXoXXXXXoXXoXXoXoo",
"          .    ....    .         X.. .o. XXo.oXoXXoooooooooooooo",
"         ............ .   .. . X ...o  . X oooooXXoooooooooooooo",
"   ........@... .... .... ..................oo.ooooooooooooooooo",
"  . .....@@......@......  ......................ooooXooooooooooo",
".........@@@....@..............    .......oXXo...XoXoooooooooooo",
"..........@.....@.@..............................oo..ooooooooooo",
"....@@@@@@@@......@...........................o..oo.oooooooooooo",
".....@@.@@@@....@@...........@......................o.oooooooooo"
};
