/* XPM */
static char *result[] = {
/* columns rows colors chars-per-pixel */
"64 64 39 1 ",
"  c #05052B",
". c #05052C",
"X c #06062D",
"o c #06062C",
"O c #06052C",
"+ c #05052A",
"@ c #06052D",
"# c #07062F",
"$ c #06062E",
"% c #07062D",
"& c #07062E",
"* c #06062B",
"= c #07072E",
"- c #06052E",
"; c #050529",
": c #07072F",
"> c #06052B",
", c #080731",
"< c #080732",
"1 c #05042B",
"2 c #080632",
"3 c #07072D",
"4 c #06052F",
"5 c #070730",
"6 c #070630",
"7 c #08072F",
"8 c #070631",
"9 c #080730",
"0 c #080631",
"q c #06062F",
"w c #07072C",
"e c #05052D",
"r c #05042C",
"t c #06062A",
"y c #04052B",
"u c #04062C",
"i c #05062D",
"p c #07052F",
"a c #05062E",
/* pixels */
"                                                                ",
"  .XoooooooooooooooO     +.@      .XoooooooooooooooX@    + @@   ",
"  #$XXXXXXoooXXXXXX%&    *%X#     =$XXXXXXooooXXXXXX-&   +@#-%  ",
"  #-$$$$$X @$$$$$$$#-    Xo;:     &$$$$$$$$;+$$$$$$$-X    -$ &; ",
"   .....>, #-.......     Xo;:      .......<.@=.......     -$ =; ",
"   + +  +,1&-            Xo;:             2.@3            -$ =; ",
"  X@&+  +,1&@           .4X;:.            2.@3           .-$ =; ",
"  :+5O  +,1#@    &6&&&==3&O %===&&&%7+    2.@%   + &#&&&&#5O =; ",
"  : 6@   71#.    #$$$$$$$$$$$$$$$$$-=     8 $X   + =.O@@@o*  =; ",
"  # 6@   O$-++   +*XXXXXXXXXXXXXXXXX      .-@.   + @$$$$$-#X =; ",
"  # 6@                                                    $$ =; ",
"  :+6O+++++      +++++++++++++++++++      +++++++++++     $$ =; ",
"  &+$XXXXXXoX    -&XXXXXXXXXXXXXXXXX&     -XXXXXXXXX$@    @@ =; ",
"  &;        6    8@                 6.    #.         5   +.68$+ ",
"  &;#955555=     .%:555560X;95555556X     .&555556<X;:          ",
"  &+#@            +      oo;:             +      +&o;:          ",
"  &+#@                   Xo;:        +            :o;:     OX   ",
"  &+#@   + q666666#o+    Xo;:     +%$+     wo     :o;:   +O5#$; ",
"  6 8O    6.+++++++O8    @-;6     5OX@    #eX6    :o;:    XX =; ",
"  O-&.    O$XXXXXXXqX    .q4X     5.o@    #eX8    :o;:    $$ =; ",
"                                  5.o@    #eX8    :o;:    $$ =; ",
"                                  5.o@    #eX8    :o;:    $$ =; ",
"  .XXXXXXXXXXXXXXXXXXXXXXXXX@     5.o@    #eX8    :o;:    $$ =; ",
"  #qqqqqqqqqqqqqqqqqqqqqqqqq#%+   5.o@    #eX8    :o;:    $$ =; ",
"  6#333333333=&. X:333333333=o+   5.o@    *=9X    :o;:     #6X  ",
"   ..........eq$ 6e..........     5.o@    .+..    :o;:     ++   ",
"              @$ 6r               5.o@            :o;:          ",
"              @$ 6r               5.o@            :o;:          ",
"  X-oooX$&    @$ 6r    =$oooooooooX o@    .##X    :o;:    >##&+ ",
"  #@oooX$7    @#-#     6@oooooooooXX&@    6.@6    $&o$    oX.=; ",
"  +o444-X.     @@.     .-44444444444@++   #eX8   ++@@     $$ =; ",
"                                          #eX8            $$ =; ",
"  +++++++++++++++++               ++++++++6 X8+++++++     $$ =; ",
"  -&===============3.     X@      X&&=====, @8========.   $$ =; ",
"  6                $#    #X6@     6..                e6   $$ =; ",
"  @&555:#6 $::55555:.    #;$-     @&#################&.   $$ =; ",
"  ++     ,1&O      ++    &;$-     ++                      $$ =; ",
"        +,1#@           +&+$-                             $$ =; ",
"  + +   +,1#@      r....r6 $-       ........++     .$####&8$ =; ",
"  #o9e  +,+#@     ######:$ $-      $#:::::::=9o    :-O.OOO   =; ",
"  :+6O  +8o5.     6XXXXXXXX#@      #$XXXXXX-+-&+ ++#6&###&&. =; ",
"  : 6@    o        ********O        ******o, X&+     >>>>O#$ =; ",
"  : 6@                                     , X&+          $$ =; ",
"  : #@......+        ................+     9 X&+   .      XX =; ",
"  &+*3#####&o+    o96################9.   ;7 X3+ +o##$   +o$o=; ",
"  &;+******OX+    o#4XXXXXXO+t*XXXXX@#@   ;7.XX+  :o;:     %%   ",
"  &+#@     .+        +++++ & # +++++.     +.#$ +  :o;:          ",
"  &+#@                    .# 6.                   :o;:          ",
"  &+#@                    .# 6.                   :o;:          ",
"  &+#@   + ::======:e     .# 6.   +.##======#O    :o;:    >6,$+ ",
"  # 6O    =r ++++++.6     .# #.   +XO ++++++X6   +=o+:    OX.=; ",
"  *%o;   ++&#$XXXXX3+      &X*+   +.#q$XXXqqqe   + q#O    $$ =; ",
"                                                          $$ =; ",
"                                                          $$ =; ",
"   XXXXXXXXXXXXXXXXXXXXX.     XXXXXXXXXXXXXXXXXXXXXXX     $$ =; ",
"  &-*******************X8    #@*********************4#    $$ =; ",
"  $&688888888##. q&6886&&    $888888$+.#688888888886#-    $$ =; ",
"  ++          @X #.     +   ++      7 $#           .      $$ =; ",
"              @$ 6r                 9e-#.                 $$ =; ",
"  ++... ++    @$ 6r    ++.....      9e-#.     r..........yui =; ",
"  pX$$$Xo#    oX #     #X$$$$$@#    9e$#    .#$$$$$$$$$$$Xa. =; ",
"  6XXXXXO6    *&X&+    6@XXXXXX8    #$&$    @6XXXXXXXXXXXXXXX&+ ",
"   o*****      **      >*******      oo      ****************   ",
"                                                                "
};
