/* XPM */
static char *result[] = {
/* columns rows colors chars-per-pixel */
"67 64 111 2 ",
"   c #635A63",
".  c #6B656B",
"X  c #848484",
"o  c #6D676D",
"O  c #716F74",
"+  c #79777A",
"@  c #8E8E8C",
"#  c #8C8C8A",
"$  c #716C71",
"%  c #393142",
"&  c #56505B",
"*  c #ADADA5",
"=  c #A3A39D",
"-  c #201E23",
";  c #2D2832",
":  c #353337",
">  c #59505B",
",  c #746F74",
"<  c #C6CCBE",
"1  c #B9BCB1",
"2  c #181818",
"3  c #29252D",
"4  c gray20",
"5  c #7E797C",
"6  c #CED6C6",
"7  c #BEC2B6",
"8  c #3C3A3D",
"9  c #878786",
"0  c #6D6C6E",
"q  c #312B38",
"w  c #5F5B63",
"e  c #4E4653",
"r  c #6A656B",
"t  c #B5B7AD",
"y  c DimGray",
"u  c #6F6E71",
"i  c #352E3D",
"p  c #332C3A",
"a  c #242128",
"s  c #1E1D20",
"d  c #9B9B97",
"f  c #807F80",
"g  c #7C7A7C",
"h  c #696269",
"j  c #CAD1C2",
"k  c #BCC2B6",
"l  c #868184",
"z  c #EFF7E7",
"x  c #DFE7D7",
"c  c #686868",
"v  c gray7",
"b  c #868484",
"n  c #655D65",
"m  c #BEC4B8",
"M  c #898988",
"N  c #C2C7BA",
"B  c #989995",
"V  c gray39",
"C  c black",
"Z  c #999995",
"A  c #252225",
"S  c #322D32",
"D  c #827D80",
"F  c #CED4C6",
"G  c #4A444A",
"H  c #0C0C0C",
"J  c #766F74",
"K  c #191719",
"L  c #222022",
"P  c #2B292B",
"I  c #757574",
"U  c #675F67",
"Y  c #B3B5AB",
"T  c #847F82",
"R  c #E7EFDF",
"E  c #DAE2D2",
"W  c #9B9895",
"Q  c #A8A8A1",
"!  c #ABADA5",
"~  c #706A6F",
"^  c #B1B2A9",
"/  c #D6DECE",
"(  c #AFB2A9",
")  c #AAAAA3",
"_  c #939390",
"`  c #CCD3C4",
"'  c #B4B7AD",
"]  c #736C71",
"[  c #AFB0A7",
"{  c #A9AAA3",
"}  c #8D8988",
"|  c #D6DDCE",
" . c #B5BAAF",
".. c #6F6A6F",
"X. c #7F797C",
"o. c #888484",
"O. c #93918E",
"+. c #767276",
"@. c #8F8E8C",
"#. c #807B7E",
"$. c #D2DACA",
"%. c #C9D1C2",
"&. c #9D9B97",
"*. c #7E7C7E",
"=. c #828182",
"-. c #979995",
";. c #90918E",
":. c #858384",
">. c #9FA19D",
",. c #9B9D99",
"<. c #929390",
/* pixels */
"    . X X X X X X X X X X X X X X X X X X X X X X X X X X X X X X X X X X X X X X X X X X X X X X X X X X X X X X X X X X X X X X .   ",
"    . X X X X X X X X X X X X X X X X X X X X X X X X X X X X X X X X X X X X X X X X X X X X X X X X X X X X X X X X X X X X X X .   ",
". . o O O O O O O O O O O O O O O O O O O O O O O O O O O O O O O O O O O O O O O O O O O O O O O O O + @ @ @ @ @ @ @ @ @ @ # X X $ . ",
"X X O % % % % % % % % % % % % % % % % % % % % % % % % % % % % % % % % % % % % % % % % % % % % % % % % & * * * * * * * * * * = X X X X ",
"X X O % % % % % % % % % % % % % % % % % % % % % % % % % % % % % % % % % % % % % % % % % % % % % % % % & * * * * * * * * * * = X X X X ",
"X X O % % % % % % % % % % % % % % % % % % % % % % % % % % % % % % % % % % % % % % % % % % % % % % % % & * * * * * * * * * * = X X X X ",
"X X O % % % % % % % % % % % % % % % % % % % % % % % % % % % % % % % % % % % % % % % % % % % % % % % % & * * * * * * * * * * = X X X X ",
"X X O % % % % % % % % % % % % % % % % % % % % % % % % % % % % % % % % % % % % % % % % % % % % % % % % & * * * * * * * * * * = X X X X ",
"X X O % % % % % % % % - - ; % % % % % - - - - - - - - - - - - - - - - - - - - - : O O O O O O O O > > , < < 1 * * * * * * * = X X X X ",
"X X O % % % % % % % % 2 2 3 % % % % % 2 2 2 2 2 2 2 2 2 2 2 2 2 2 2 2 2 2 2 2 2 4 X X X X X X X X     5 6 6 7 * * * * * * * = X X X X ",
"X X O % % % % % % % % - - ; % % % % % - - - - - - - - - - - - - - - - - - - - - 8 @ @ @ @ @ 9 X X     5 6 6 7 * * * * * * * = X X X X ",
"X X O % % % % % % % % % % % % % % % % % % % % % % % % % % % % % % % % % % % % % & * * * * * @ X X     5 6 6 7 * * * * * * * = X X X X ",
"X X O % % % % % % % % % % % % % % % % % % % % % % % % % % % % % % % % % % % % % & * * * * * @ X X     5 6 6 7 * * * * * * * = X X X X ",
"X X 0 3 3 q % % ; 3 3 3 3 3 3 3 3 3 3 3 3 3 3 3 3 3 3 3 3 3 w w w w w & e e e e r 7 7 t * * @ X X     5 6 6 7 * * * * * * * = X X X X ",
"X X y 2 2 3 % % - 2 2 2 2 2 2 2 2 2 2 2 2 2 2 2 2 2 2 2 2 2 X X X X X ,         5 6 6 7 * * @ X X     5 6 6 7 * * * * * * * = X X X X ",
"X X y 2 2 3 % % - 2 2 2 2 2 2 2 2 2 2 2 2 2 2 2 2 2 2 2 2 2 X X X X X ,         5 6 6 7 * * @ X X     5 6 6 7 * * * * * * * = X X X X ",
"X X u q q i % % p q q 2 2 a q q s 2 2 2 2 2 2 2 2 2 2 2 2 2 = = d X X f g g h   5 6 6 7 * * @ X X     5 6 6 j < < < < < * * = X X X X ",
"X X O % % % % % % % % 2 2 3 % % - 2 2 2 2 2 2 2 2 2 2 2 2 2 * * = X X X X X .   5 6 6 7 * * @ X X     5 6 6 6 6 6 6 6 6 * * = X X X X ",
"X X O % % % % % % % % 2 2 3 % % - 2 2 2 2 2 2 2 2 2 2 2 2 2 * * = X X X X X .   5 6 6 7 * * @ X X     5 6 6 6 6 6 6 6 6 * * = X X X X ",
"X X y 2 2 2 2 2 2 2 2 2 2 2 2 2 2 2 2 X X g                 6 6 k X X X X X .   5 6 6 7 * * @ X X     l z z x 6 6 6 6 6 * * = X X X X ",
"X X y 2 2 2 2 2 2 2 2 2 2 2 2 2 2 2 2 X X g                 6 6 k X X X X X .   5 6 6 7 * * @ X X     l z z x 6 6 6 6 6 * * = X X X X ",
"X X c v v v v v v v v v v v v v v v v @ @ b . . . . . n     6 6 m @ @ M X X .   5 6 6 N t t B @ @     l z z x 6 6 6 6 6 * * = X X X X ",
"X X V C C C C C C C C C C C C C C C C * * = X X X X X .     6 6 < * * Z X X .   5 6 6 6 6 6 t * *     l z z x 6 6 6 6 6 * * = X X X X ",
"X X V C C C C C C C C C C C C C C C C * * = X X X X X .     6 6 < * * Z X X .   5 6 6 6 6 6 t * *     l z z x 6 6 6 6 6 * * = X X X X ",
"X X V C C C C C A S S S S S S S S S S * * = X X X X X .     6 6 < * * Z X X .   5 6 6 6 6 6 t * *     D x x F 7 7 7 7 7 * * = X X X X ",
"X X V C C C C C G                     * * = X X X X X .     6 6 < * * Z X X .   5 6 6 6 6 6 t * *     5 6 6 7 * * * * * * * = X X X X ",
"X X V C C C C C G                     * * = X X X X X .     6 6 < * * Z X X .   5 6 6 6 6 6 t * *     5 6 6 7 * * * * * * * = X X X X ",
"X X V C C H 2 2 y X X                 * * * * * Z X X .     6 6 6 6 6 7 * * J   5 6 6 6 6 6 t * *     l z z x 6 6 6 6 6 * * = X X X X ",
"X X V C C H 2 2 y X X                 * * * * * Z X X .     6 6 6 6 6 7 * * J   5 6 6 6 6 6 t * *     l z z x 6 6 6 6 6 * * = X X X X ",
"X X y K K L P P I @ @ . . U           * * * * * Z X X .     6 6 6 6 6 7 * * J   5 6 6 j < < Y * *     T R R E 6 6 6 6 6 * * = X X X X ",
"X X g           W * * X X ,           * * * * * Z X X .     6 6 6 6 6 7 * * J   5 6 6 7 * * * * *     5 6 6 6 6 6 6 6 6 * * = X X X X ",
"X X g           W * * X X ,           * * * * * Z X X .     6 6 6 6 6 7 * * J   5 6 6 7 * * * * *     5 6 6 6 6 6 6 6 6 * * = X X X X ",
"X X g           W * * X X g , , U     * * Q Z Z @ X X .     6 6 j 7 7 ! Z Z ~   5 6 6 < 7 7 ^ * *     D x x / 6 6 6 6 6 7 7 ( X X X X ",
"X X g           W * * X X X X X .     * * = X X X X X .     6 6 < * * Z X X .   5 6 6 6 6 6 t * *     l z z x 6 6 6 6 6 6 6 k X X X X ",
"X X g           W * * X X X X X .     * * = X X X X X .     6 6 < * * Z X X .   5 6 6 6 6 6 t * *     l z z x 6 6 6 6 6 6 6 k X X X X ",
"X X g           W * * X X X X X .     * * ) = = _ X X .     6 6 ` < < ' = = ]   5 6 6 N t t [ * *     l z z x 6 6 6 6 6 t t { X X X X ",
"X X g           W * * X X X X X .     * * * * * Z X X .     6 6 6 6 6 7 * * J   5 6 6 7 * * * * *     l z z x 6 6 6 6 6 * * = X X X X ",
"X X g           W * * X X X X X .     * * * * * Z X X .     6 6 6 6 6 7 * * J   5 6 6 7 * * * * *     l z z x 6 6 6 6 6 * * = X X X X ",
"X X g           W * * X X X X X .     * * = X X X X X .     6 6 < * * Z X X .   5 6 6 6 6 6 t * *     l z z x 6 6 6 6 6 6 6 k X X X X ",
"X X g           W * * X X X X X .     * * = X X X X X .     6 6 < * * Z X X .   5 6 6 6 6 6 t * *     l z z x 6 6 6 6 6 6 6 k X X X X ",
"X X g           } W W g g g g g h     * * = X X f g g h     6 6 < * * Z X X .   5 6 6 6 6 6 t * *     T R R | < < < < < < <  .X X X X ",
"X X g                                 * * = X X ,           6 6 < * * Z X X .   5 6 6 6 6 6 t * *     5 6 6 7 * * * * * * * = X X X X ",
"X X g                                 * * = X X ,           6 6 < * * Z X X .   5 6 6 6 6 6 t * *     5 6 6 7 * * * * * * * = X X X X ",
"X X g           .., , , , .           * * Q Z Z b , , U     6 6 j 7 7 ! Z Z ~   5 6 6 6 6 6 t * *     D x x F 7 7 7 7 7 * * = X X X X ",
"X X g           g X X X X ,           * * * * * Z X X .     6 6 6 6 6 7 * * J   5 6 6 6 6 6 t * *     l z z x 6 6 6 6 6 * * = X X X X ",
"X X g           g X X X X ,           * * * * * Z X X .     6 6 6 6 6 7 * * J   5 6 6 6 6 6 t * *     l z z x 6 6 6 6 6 * * = X X X X ",
"X X g           W * * X X X X X .     * * * * * Z X X .     6 6 6 6 6 7 * * J   5 6 6 7 * * * * *     l z z x 6 6 6 6 6 * * = X X X X ",
"X X g           W * * X X X X X .     * * * * * Z X X .     6 6 6 6 6 7 * * J   5 6 6 7 * * * * *     l z z x 6 6 6 6 6 * * = X X X X ",
"X X g           W * * X X X X X .     * * ) = = _ X X .     6 6 ` < < ' = = ]   5 6 6 N t t [ * *     l z z x 6 6 6 6 6 t t { X X X X ",
"X X g           W * * X X X X X .     * * = X X X X X .     6 6 < * * Z X X .   5 6 6 6 6 6 t * *     l z z x 6 6 6 6 6 6 6 k X X X X ",
"X X g           W * * X X X X X .     * * = X X X X X .     6 6 < * * Z X X .   5 6 6 6 6 6 t * *     l z z x 6 6 6 6 6 6 6 k X X X X ",
"X X g           X.o.o., , , , , U     * * = X X g , , U     6 6 < * * Z X X .   5 6 6 6 6 6 t * *     D x x F 7 7 7 7 7 7 7 ( X X X X ",
"X X g                                 * * = X X ,           6 6 < * * Z X X .   5 6 6 6 6 6 t * *     5 6 6 7 * * * * * * * = X X X X ",
"X X g                                 * * = X X ,           6 6 < * * Z X X .   5 6 6 6 6 6 t * *     5 6 6 7 * * * * * * * = X X X X ",
"= = O.          +.g g g g ..          * * ) = = @.g g h     6 6 ` < < ' = = ]   5 6 6 6 6 6 t * *     5 6 6 j < < < < < * * = X X d = ",
"* * W           g X X X X ,           * * * * * Z X X .     6 6 6 6 6 7 * * J   5 6 6 6 6 6 t * *     5 6 6 6 6 6 6 6 6 * * = X X = * ",
"* * W           g X X X X ,           * * * * * Z X X .     6 6 6 6 6 7 * * J   5 6 6 6 6 6 t * *     5 6 6 6 6 6 6 6 6 * * = X X = * ",
"* * = X X ,     W * * X X X X X .     * * * * * Z X X .     6 6 6 6 6 7 * * J   5 6 6 7 * * * * *     5 6 6 6 6 6 6 6 6 * * = X X = * ",
"* * = X X ,     W * * X X X X X .     * * * * * Z X X .     6 6 6 6 6 7 * * J   5 6 6 7 * * * * *     5 6 6 6 6 6 6 6 6 * * = X X = * ",
"t t { X X ,     W * * @ @ M X X .     * * ) = = _ X X .     < < < < < ' = = ]   5 6 6 N t t [ * *     #./ / $.6 6 6 6 6 t t { X X { t ",
"6 6 k X X ,     W * * * * Z X X .     * * = X X X X X .     * * * * * Z X X .   5 6 6 6 6 6 t * *     l z z x 6 6 6 6 6 6 6 k X X k 6 ",
"6 6 k X X ,     W * * * * Z X X .     * * = X X X X X .     * * * * * Z X X .   5 6 6 6 6 6 t * *     l z z x 6 6 6 6 6 6 6 k X X k 6 ",
"6 6 %.k k ! W W Q * * * * Q = = &.W W @ @ # X X X X X *.g g @ @ @ @ @ M X X *.g =.-.-.-.-.-.;.@ @ g g :.>.>.,.-.-.-.-.-.-.-.<.X X k 6 ",
"6 6 6 6 6 7 * * * * * * * * * * * * * X X X X X X X X X X X X X X X X X X X X X X X X X X X X X X X X X X X X X X X X X X X X X X k 6 "
};
