/* XPM */
static char *result[] = {
/* columns rows colors chars-per-pixel */
"64 64 231 2 ",
"   c #05052B",
".  c #05052C",
"X  c #06052C",
"o  c #070731",
"O  c #05052A",
"+  c #040442",
"@  c #030372",
"#  c #030371",
"$  c #030370",
"%  c #08072F",
"&  c #07072E",
"*  c #06062C",
"=  c #030389",
"-  c #011FD0",
";  c #005AFF",
":  c #0202B8",
">  c #04045B",
",  c #070730",
"<  c #000FFF",
"1  c #004BFF",
"2  c #013DE8",
"3  c #0202B9",
"4  c #0202BA",
"5  c #0302BB",
"6  c #0201B9",
"7  c #0303BB",
"8  c #003CFF",
"9  c #05042C",
"0  c #06052D",
"q  c #0311A2",
"w  c #04045A",
"e  c #070631",
"r  c #06062D",
"t  c #080733",
"y  c #05052D",
"u  c #090833",
"i  c #011FCF",
"p  c #05055F",
"a  c #090734",
"s  c #080731",
"d  c #070648",
"f  c #0220D1",
"g  c #002DFF",
"h  c #0211A1",
"j  c #040372",
"k  c #001EFF",
"l  c #000066",
"z  c #000099",
"x  c #06062F",
"c  c #040445",
"v  c #040459",
"b  c #080732",
"n  c #040373",
"m  c #07062E",
"M  c #060744",
"N  c #03159C",
"B  c #0130DD",
"V  c #013DE7",
"C  c #013CE8",
"Z  c #021CBB",
"A  c #040A6D",
"S  c #050476",
"D  c #02159C",
"F  c #012BD6",
"G  c #03117A",
"H  c #05045D",
"J  c #05045C",
"K  c #04035B",
"L  c #06065F",
"P  c #0223B6",
"I  c #0129DA",
"U  c #070645",
"Y  c #050574",
"T  c #07062F",
"R  c #060549",
"E  c #0130DE",
"W  c #030A6C",
"Q  c #0125E0",
"!  c #002CF5",
"~  c #0216B6",
"^  c #050540",
"/  c #012DCD",
"(  c #03138F",
")  c #001BBB",
"_  c #000F99",
"`  c #0011A4",
"'  c #0035E8",
"]  c #04046A",
"[  c #0220B8",
"{  c #000077",
"}  c #003CDD",
"|  c #0220BA",
" . c #070630",
".. c #06055E",
"X. c #0220B9",
"o. c #05055C",
"O. c #05052E",
"+. c #050537",
"@. c #050531",
"#. c #06062E",
"$. c #040474",
"%. c #05055D",
"&. c #05074F",
"*. c #0227BC",
"=. c #0220C4",
"-. c #0220C5",
";. c #021FC4",
":. c #0227C4",
">. c #040E78",
",. c #060630",
"<. c #040475",
"1. c #060633",
"2. c #0225BB",
"3. c #040966",
"4. c #021EB1",
"5. c #0220B4",
"6. c #030C6B",
"7. c #0226C3",
"8. c #060843",
"9. c #012ED0",
"0. c #03178D",
"q. c #000E95",
"w. c #000880",
"e. c #00088E",
"r. c #011EC2",
"t. c #040C4E",
"y. c #08072E",
"u. c #0302B9",
"i. c #04045C",
"p. c #031996",
"a. c #011FCB",
"s. c #050C51",
"d. c #050474",
"f. c #04045D",
"g. c #031995",
"h. c #040C4F",
"j. c #07062D",
"k. c #06055C",
"l. c #050737",
"z. c #041167",
"x. c #041672",
"c. c #04126B",
"v. c #05083F",
"b. c #041168",
"n. c #0218A6",
"m. c #0214A8",
"M. c #02169B",
"N. c #04147C",
"B. c #05053A",
"V. c #012ED1",
"C. c #031997",
"Z. c #021493",
"A. c #03158F",
"S. c #070639",
"D. c #022ED0",
"F. c #041A96",
"G. c #021494",
"H. c #03158E",
"J. c #050C50",
"K. c #041673",
"L. c #04116B",
"P. c #02158C",
"I. c #02148C",
"U. c #03148C",
"Y. c #03148D",
"T. c #04116D",
"R. c #0320BA",
"E. c #07072F",
"W. c #090832",
"Q. c #080730",
"!. c #06052E",
"~. c #060539",
"^. c #03199A",
"/. c #03199D",
"(. c #060D51",
"). c #060639",
"_. c #010975",
"`. c #010774",
"'. c #01066E",
"]. c #031A9D",
"[. c #031999",
"{. c #010775",
"}. c #01056E",
"|. c #050538",
" X c #05045B",
".X c #07063A",
"XX c #030C61",
"oX c #030C62",
"OX c #0214A9",
"+X c #02169A",
"@X c #050575",
"#X c #0302BA",
"$X c #05083D",
"%X c #07062C",
"&X c #06053A",
"*X c #03038A",
"=X c #060631",
"-X c #060941",
";X c #03038B",
":X c #04074F",
">X c #030D77",
",X c #06052B",
"<X c #060538",
"1X c #04038B",
"2X c #06052A",
"3X c #040469",
"4X c #040444",
"5X c #041490",
"6X c #03159D",
"7X c #012BD5",
"8X c #06055D",
"9X c #05055E",
"0X c #06065D",
"qX c #0129DB",
"wX c #05053F",
"eX c #040643",
"rX c #02159B",
"tX c #040A6C",
"yX c #05055B",
"uX c #080734",
"iX c #050578",
"pX c #07072D",
"aX c #050529",
"sX c #040440",
"dX c #0312A2",
"fX c #090831",
"gX c #04048B",
"hX c #0303BA",
"jX c #040473",
"kX c #040472",
"lX c #060576",
/* pixels */
"                                                                                                                      . X o   . ",
"                                                                                                                      . X o   . ",
"O O O O     + @ @ @ @ # # # # # # # # # # # # # # # # # # # # # $ # @ @ @ @ @ @ @ # # # # # # # # # # # # # # @ @ @   . X o   . ",
"% % % & * = - ; ; ; ; ; ; ; ; ; ; ; ; ; ; ; ; ; ; ; ; ; ; ; ; ; ; ; ; ; ; ; ; ; ; ; ; ; ; ; ; ; ; ; ; ; ; ; ; ; ; ; : > X ,   . ",
". . . . < 1 2 : : : 3 4 : 3 3 3 3 3 3 3 3 3 3 3 3 3 3 3 3 3 3 3 3 3 4 3 : : : : : 5 3 3 3 3 3 3 3 3 3 3 6 3 7 : : : ; 8 : % 9 0 ",
"      = 1 q w       . e                                           r e .           t y                   9 . u       @ i 2 p a t ",
"s s d f 2 > + @ g g g g g g g g g g g g g g g g g g g g g g g g g g g g g g g g g g g g g g g g g g g g g g g g - @   = 1 h     ",
"X X j ; :   @ 8 g g g g g g g g g g g g g g g g g g g g g g g g g g g g g g g g g g g g g g g g g g g g g g g g 8 k     g g     ",
". . @ ; :   g g l l l l l l l l l l l l l l l l l l l l l l l l l l l l l l l l l l l l l l l l l l l l l l l l z ; :   g g     ",
"    @ ; :   g g l l l l l l l l l l l l l l l l l l l l l l l l l l l l l l l l l l l l l l l l l l l l l l l l z ; :   g g     ",
"    @ ; :   g g l l                                                                                 X x . l l l z ; :   g g . . ",
"  O # ; :   g g l l O O     c w w w w w w w w w w w w w w w w v v w w w w w w w w w w w w w w w w   X x . l l l z ; : O g g b b ",
"    n ; 5 b g g l l m m M N B V V 2 V 2 2 2 2 2 2 2 2 2 2 2 2 2 2 2 V V V 2 2 2 2 2 2 2 2 C 2 V V Z A m . l l l z ; : O g g . . ",
"    S ; :   g g l l     D F G w w H w w w w w w w w w w w w w w > H w w w J H w w w w w w K L w w P I U e l l l z ; :   g g   . ",
"    Y ; : O g g l l T R E G W Q g g g g g g g g g g g g g g g g g g g g g g g g g g g g g g g ! ~ ^ / (   l l l z ; : . g g   . ",
"  . @ ; 4 , g g l l . > V w Q ) _ _ _ _ _ _ _ _ _ _ _ _ _ _ _ _ _ _ _ _ _ _ _ _ _ _ _ _ _ _ _ ` ' ] [ [   l l l z ; : . g g   . ",
"    @ ; :   g g l l   w V w g _ l l l l l l l l l l l l l l l l l l l l l l l l l l l l l l l { } = [ [   l l l z ; : . g g   . ",
"    @ ; :   g g l l   w V w g _ l l l l l l l l l l l l l l l l l l l l l l l l l l l l l l l { } = [ |  .l l l z ; : . g g   . ",
"    @ ; :   g g l l   J 2 ..g _ l l l l l l l l l l l l l l l l l l l l l l l l l l l l l l l { } = [ X.. l l l z ; : . g g   . ",
"    @ ; :   g g l l   o.V w g _ l l l     O.+.+.+.+.+.+.+.+.+.+.+.+.+.+.+.+.+.+.+.+.@.0 . l l { } = X.[ . l l l z ; : . g g   . ",
"#.#.$.; 3 #.g g l l   > 2 %.g _ l l l r &.*.=.-.=.=.=.=.=.=.=.=.=.=.=.=.=.=.=.=.;.=.:.>.0 l l { } = X.[ . l l l z ; : . g g   . ",
",.,.<.; 4 ,.g g l l   w V w g _ l l l 1.2.3.4.X.[ [ [ [ [ [ [ [ X.X.[ X.X.[ [ [ X.5.6.7.8.l l { } = X.[ . l l l z ; : . g g   . ",
"    @ ; :   g g l l   w V w g _ l l l +.9.0.q.w.w.w.w.w.w.w.w.w.w.w.w.w.w.w.w.w.w.e.r.[ t.l l { } = X.[ . l l l z ; :   g g . . ",
"y.y.Y ; u.y.g g l l r i.2 i.g _ l l l +.9.p.w.l l l l l l l l l l l l l l l l l l { a.[ s.l l { } = X.[ . l l l z ; :   g g  .e ",
"m m d.; 3 m g g l l #.f.2 f.g _ l l l +.9.g.w.l l l l l l l l l l l l l l l l l l { a.X.h.l l { } = X.[ . l l l z ; :   g g     ",
"    @ ; :   g g l l j.o.2 k.g _ l l l +.9.g.w.l l l.z.x.x.x.x.x.x.x.x.x.x.c.v.l l { a.X.h.l l { } = [ | x l l l z ; :   g g     ",
"    @ ; :   g g l l r J 2 J g _ l l l +.9.g.w.l l b.n.m.m.m.m.m.m.m.m.m.m.M.N.l l { a.X.h.l l { } = [ [   l l l z ; :   g g     ",
"    @ ; :   g g l l   w V w g _ l l l B.V.C.w.l l x.m.l l l l l l l l l l Z.A.l l { a.X.h.l l { } = [ [   l l l z ; :   g g     ",
"    @ ; :   g g l l   w V w g _ l l l S.D.F.w.l l x.m.l l l l l l l l l l G.H.l l { a.[ J.l l { } = [ [   l l l z ; :   g g     ",
"s y @ ; :   g g l l #.> V w g _ l l l +.9.g.w.l l K.m.l L.P.I.U.U.Y.I.T.l G.A.l l { a.[ t.l l { } = [ R.E.l l l z ; : O g g W.Q.",
"!.% @ ; :   g g l l m J V w g _ l l l ~.9.g.w.l l K.m.l ^.l l l l l l /.l G.H.l l { a.[ (.l l { } = [ X.#.l l l z ; : O g g #.T ",
"X y.@ ; :   g g l l T > V w g _ l l l ).9.g.w.l l K.m.l ^.l l _.`.'.l ].l Z.A.l l { a.[ h.l l { } = X.[ . l l l z ; :   g g   . ",
"s #.@ ; :   g g l l r > V w g _ l l l +.9.g.w.l l x.m.l [.l l `.l {.l ].l G.H.l l { a.X.h.l l { } = X.[ . l l l z ; : . g g   . ",
"    @ ; :   g g l l   w V w g _ l l l +.9.g.w.l l K.m.l [.l l _.`.}.l ].l G.H.l l { a.X.h.l l { } = X.[ . l l l z ; : . g g   . ",
"    @ ; :   g g l l   w V w g _ l l l |.9.g.w.l l K.m.l ^.l l l l l l /.l G.H.l l { a.X.h.l l { } = X.[ . l l l z ; : . g g   . ",
"    @ ; :   g g l l * > 2  Xg _ l l l .X9.g.w.l l K.m.l XXP.P.P.P.P.P.oXl G.A.l l { a.X.h.l l { } = X.[ . l l l z ; : . g g   . ",
"    @ ; :   g g l l r i.2  Xg _ l l l .XV.g.w.l l K.m.l l l l l l l l l l G.H.l l { a.X.h.l l { } = X.[ . l l l z ; : . g g   . ",
"O O # ; : O g g l l 0 > 2  Xg _ l l l .X9.p.w.l l z.n.m.OXOXOXOXOXm.OXm.m.+XN.l l { a.X.h.l l { } = X.[ . l l l z ; : . g g   . ",
"Q.Q.@X; #XQ.g g l l m J 2  Xg _ l l l ).9.g.w.l l l.z.x.x.K.K.K.x.x.x.x.K.c.$Xl l { a.X.h.l l { } = X.[ . l l l z ; : . g g   . ",
"    @ ; :   g g l l j.J 2 > g _ l l l +.9.g.w.l l l l l l l l l l l l l l l l l l { a.X.h.l l { } = X.[ . l l l z ; : . g g   . ",
".   @ ; 3   g g l l %XJ 2 > g _ l l l &X9.0.q.w.w.w.w.w.w.w.w.w.w.w.w.w.w.w.w.w.w.e.r.[ h.l l { } *X[ [ . l l l z ; : . g g   . ",
"e s @ ; 5 % g g l l %XJ 2 > g _ l l l =X2.3.4.[ | R.R.R.X.X.R.R.R.X.[ [ | X.[ X.[ 5.6.7.-Xl l { } ;XX.[ . l l l z ; : . g g   . ",
"X % @ ; 3 O g g l l j. X2 > g _ l l l   :X*.=.=.=.=.=.=.-.-.=.=.=.=.=.=.-.-.=.=.=.-.:.>X  l l { } *XX.[ . l l l z ; : . g g   . ",
",Xs @ ; 4   g g l l * o.2 > g _ l l l     O.+.+.+.+.+.+.).~.+.+.+.+.+.+.+.+.+.<X+.).@.    l l { } 1XX.[ . l l l z ; : . g g   . ",
"2Xs @ ; 4 . g g l l   w V w g _ l l l l l l l l l l l l l l l l l l l l l l l l l l l l l l l { } *XX.[ . l l l z ; : . g g   . ",
"2Xs @ ; 4 . g g l l   w V w g _ l l l l l l l l l l l l l l l l l l l l l l l l l l l l l l l { } = X.[ . l l l z ; 3   g g   . ",
"2Xs @ ; 4 . g g l l . > V w g _ l l l l l l l l l l l l l l l l l l l l l l l l l l l l l l l { } = [ [ . l l l z ; 3 * g g   . ",
"2Xs # ; 4 . g g l l e p 2 w Q ) _ _ _ _ _ _ _ _ _ _ _ _ _ _ _ _ _ _ _ _ _ _ _ _ _ _ _ _ _ _ _ ` ' 3X[ [ * l l l z ; 4 T g g   . ",
"2Xb $ ; 4 . g g l l O 4XB G W Q g g g g g g g g g g g g g g g g g g g g g g g g g g g g g g g ! ~ ^ / 5X% l l l z ; : O g g   . ",
"O b $ ; 4 . g g l l m m 6X7XG w w w  X..8X8X8X8X8Xo.> o.8X8X8X8X8X..> w w w  X%.9Xw w w k.w 0Xw w P qXwXO l l l z ; 3 m g g   . ",
"  #.Y ; 3   g g l l     eXrXB V V V V V V V V V V 2 2 2 V V V V V 2 V V V V 2 2 2 V V V 2 V 2 V V Z tX    l l l z ; 4 T g g   . ",
"  O $ ; :   g g l l         c w w w w w w w w w > o.yXJ > w w w w w w w w w w w w w w w o.w 8Xw w         l l l z ; :   g g   . ",
"    @ ; :   g g l l           . . .             X #.r !..             . . . .           m   %           . l l l z ; : . g g   . ",
"    @ ; :   g g l l l l l l l l l l l l l l l l l l l l l l l l l l l l l l l l l l l l l l l l l l l l l l l l z ; : . g g   . ",
". . @ ; :   g g l l l l l l l l l l l l l l l l l l l l l l l l l l l l l l l l l l l l l l l l l l l l l l l l z ; :   g g   . ",
"uXuXiX; 3 O g g l l l l l l l l l l l l l l l l l l l l l l l l l l l l l l l l l l l l l l l l l l l l l l l l z ; : O g g   . ",
"    @ ; #XO @ 8 g g g g g g g g g g g g g g g g g g g g g g g g g g g g g g g g g g g g g g g g g g g g g g g g 8 k   O g g * pX",
"aXaXsXi 2 w + @ g g g g g g g g g g g g g g g g g g g g g g g g g g g g g g g g g g g g g g g g g g g g g g g g - @   = 1 dXfXQ.",
"Q.Q.% gX1 h w             s s Q.% % % % % % Q.*   j.& % % % % % % Q.s m .         O m x T ,   O       %   O fX      @ - 2 w aXaX",
"      . < 1 2 : : : : : : 3 : : : : : : : : 3 3 3 4 3 : : : : : : : 3 : : : : : : : 3 4 4 3 : : : : : #X: : hX: : : ; 8 :       ",
"          = - ; ; ; ; ; ; ; ; ; ; ; ; ; ; ; ; ; ; ; ; ; ; ; ; ; ; ; ; ; ; ; ; ; ; ; ; ; ; ; ; ; ; ; ; ; ; ; ; ; ; ; : w         ",
"            + @ @ @ @ @ @ @ @ @ @ @ @ @ @ @ d.jXkXd.n @ @ @ @ @ @ @ @ @ @ @ @ @ @ @ @ @ @ @ @ @ @ @ @ Y @ # lX@ @ @             ",
"                                            T r * T 0 .                                               %   O fX                  ",
"              . . . . .                     T r * T 0 .                   . . . . . .                 %   O fX              . . "
};
