/* XPM */
static char *favorite_1__2__1_1677078248[] = {
/* columns rows colors chars-per-pixel */
"64 64 154 2 ",
"   c #B93B3F",
".  c #E41D25",
"X  c #ED1B24",
"o  c #CE292F",
"O  c #CA262D",
"+  c #DE222B",
"@  c #D5292F",
"#  c #D4252C",
"$  c #CD2C32",
"%  c #D32A31",
"&  c #D82E31",
"*  c #C93035",
"=  c #C3373E",
"-  c #D1343B",
";  c #ED2027",
":  c #E42229",
">  c #ED242B",
",  c #ED2C34",
"<  c #E62D33",
"1  c #ED3237",
"2  c #E53238",
"3  c #EE333A",
"4  c #E7383F",
"5  c #F0333A",
"6  c #F0393E",
"7  c #D63D43",
"8  c #EE3B42",
"9  c #F03C43",
"0  c #A74D4F",
"q  c #AD4D4F",
"w  c #B84447",
"e  c #B24F54",
"r  c #A75154",
"t  c #B45859",
"y  c #A05E60",
"u  c #8F6D6E",
"i  c #9F6365",
"p  c #916768",
"a  c #916C6C",
"s  c #8F706E",
"d  c #8F7172",
"f  c #8B7A79",
"g  c #957777",
"h  c #AD6B6E",
"j  c #BD6A6D",
"k  c #A57779",
"l  c #AE7D7F",
"z  c #B27A7B",
"x  c #C94B4F",
"c  c #D04349",
"v  c #EF4047",
"b  c #E3434A",
"n  c #EF474E",
"m  c #F14046",
"M  c #F24D54",
"N  c #F35A5F",
"B  c #F25D62",
"V  c #CE6468",
"C  c #C66A6C",
"Z  c #CD6B6D",
"A  c #C36D70",
"S  c #C17373",
"D  c #F36267",
"F  c #F36269",
"G  c #F46D73",
"H  c #F5797F",
"J  c #F57479",
"K  c #073F89",
"L  c #093F89",
"P  c #074087",
"I  c #0C4189",
"U  c #154A8E",
"Y  c #205394",
"T  c #275799",
"R  c #2A5A98",
"E  c #305E9C",
"W  c #4A71A8",
"Q  c #5078AB",
"!  c #5B7FB1",
"~  c #937F81",
"^  c #7D9D9C",
"/  c #6A8BB7",
"(  c #7EA5A4",
")  c #74A8A6",
"_  c #7AA9A6",
"`  c #76ADA9",
"'  c #7AAEAB",
"]  c #7FB7B4",
"[  c #74B8B7",
"{  c #7CBAB6",
"}  c #74BDBA",
"|  c #7CBDBA",
" . c #75B5B4",
".. c #6FC4BF",
"X. c #74C3BE",
"o. c #78C0BC",
"O. c #6EC7C5",
"+. c #6FCAC5",
"@. c #73C6C2",
"#. c #72CCC6",
"$. c #72CDC8",
"%. c #8C8685",
"&. c #858B8B",
"*. c #908484",
"=. c #869494",
"-. c #899595",
";. c #859897",
":. c #849D9B",
">. c #8E9D99",
",. c #949594",
"<. c #A48B8A",
"1. c #A28381",
"2. c #B98386",
"3. c #AD9C9C",
"4. c #8FA9A6",
"5. c #8BABA8",
"6. c #92A7A5",
"7. c #92A8A6",
"8. c #F58186",
"9. c #F68489",
"0. c #F6898E",
"q. c #F79497",
"w. c #F79CA1",
"e. c #F9A2A5",
"r. c #F8A5A9",
"t. c #F8AAAD",
"y. c #F9B3B4",
"u. c #FABABB",
"i. c #89A3C6",
"p. c #8FA7C9",
"a. c #9FB4D1",
"s. c #DCBECA",
"d. c #AEC0D8",
"f. c #B8C9DD",
"g. c #B3C3DA",
"h. c #E6C3CA",
"j. c #F8CACD",
"k. c #FAC4C6",
"l. c #FBCFD0",
"z. c #ECD1D6",
"x. c #FBD2D3",
"c. c #FCDEDE",
"v. c #C0CDE0",
"b. c #C5D2E3",
"n. c #DEDEE8",
"m. c #FDE0E2",
"M. c #FBE7E8",
"N. c #FDE9EA",
"B. c #EAEDF3",
"V. c #F3F4F7",
"C. c #FEF4F3",
"Z. c #FCF8F7",
"A. c #F3F5FA",
"S. c #FFFEFE",
/* pixels */
"$.$.$.$.$.$.$.$.$.$.$.$.$.$.$.$.$.$.$.$.$.$.$.$.$.$.$.$.#.#.#.$.$.$.$.$.$.$.$.$.$.$.$.$.$.$.$.$.$.$.$.$.$.$.$.$.$.$.$.$.$.$.$.$.",
"$.$.$.$.$.$.$.$.$.$.$.$.$.$.$.$.$.$.$.$.$.$.$.$.$.$.$.$.#.o.5.o.| o.X.$.$.$.$.$.$.$.$.$.$.$.$.$.$.$.$.$.$.$.$.$.$.$.$.$.$.$.$.$.",
"$.$.$.$.$.$.$.$.$.$.$.$.$.$.$.$.$.$.$.$.$.$.$.$.$.#.p.5.3.2.C V V Z 2.3.7.| $.$.$.$.$.$.$.$.$.$.$.$.$.$.$.$.$.$.$.$.$.$.$.$.$.$.",
"$.$.$.$.$.$.$.$.$.$.$.$.$.$.$.$.$.$.$.$.$.$.$.$.6.A n 6 X X X X ; X X ; 3 n S 7.X.$.$.$.$.$.$.$.$.$.$.$.$.$.$.$.$.$.$.$.$.$.$.$.",
"$.$.$.$.$.$.$.$.$.$.$.$.$.$.$.$.$.$.$.$.$.$.7.Z 4 > X X X X X X X X X X X X > 8 Z 5.$.$.$.$.$.$.$.$.$.$.$.$.$.$.$.$.$.$.$.$.$.$.",
"$.$.$.$.$.$.$.$.$.$.$.$.$.$.$.$.$.$.$.$.@.<.b X . X X X X X X X X X X X X X X . > b <.$.$.$.$.$.$.$.$.$.$.$.$.$.$.$.$.$.$.$.$.$.",
"$.$.$.$.$.$.$.$.$.$.$.$.$.$.$.$.$.$.$.5.~ 5 X X X X X X X X X X X X X X X X X X X X 1 l X.$.$.$.$.$.$.$.$.$.$.$.$.$.$.$.$.$.$.$.",
"$.$.$.$.$.$.$.$.$.$.$.$.$.$.$.$.$.$.$.Z > X X X X X X X X X X X X X X X X X X X X X X 1 j #.#.$.$.$.$.$.$.$.$.$.$.$.$.$.$.$.$.$.",
"$.$.$.$.$.$.$.$.$.$.$.#.$.$.$.#.$.#.l > X X X X X X X X X X X X X X X X X X X X X X X X , 1.#.$.$.$.$.$.$.$.#.$.$.$.$.$.$.$.$.$.",
"$.$.$.$.$.$.$.$.#.$.$.#.$.$.$.$.$.,.< X X X X X X X X X X X X X X X X X X X X X X X X X X 1 >.$.$.$.$.$.$.$.$.$.$.$.$.$.$.$.$.$.",
"$.$.$.$.$.$.$.$.$.$.$.$.$.$.+.$.@.c X X X X X X X X X X X X X X X X X X X X X X X X X X X ; x X.$.$.$.$.$.$.$.$.$.$.$.$.$.$.$.$.",
"$.$.$.$.$.$.$.$.$.$.$.$.$.$.$.$.h > X X X X X X X X X X X X X X X X X X X X X X X X X X X X > k $.$.$.$.$.$.$.$.$.$.$.$.$.$.$.$.",
"$.$.$.$.$.$.$.$.$.$.$.$.$.$.#.] 7 X X X X X X X X X > 9 9 1 X X X X X X X X X X ; 5 m 5 > X X c { $.$.$.$.$.$.$.$.$.$.$.$.$.$.$.",
"$.$.$.$.$.$.$.$.$.$.$.$.$.$.$.,.> X X X X X X X X 9 w.k.x.y.D > X X X X X X X 5 8.u.x.u.9.> X : >.$.$.+.$.$.$.$.$.$.$.$.$.$.$.#.",
"$.$.$.$.$.$.$.$.$.$.$.$.$.$.$.t X X X X X X X X B l.S.S.S.S.M.9.; X X X X X 9 y.C.S.S.S.Z.t.5 X h $.$.$.$.$.$.$.$.$.$.$.$.$.$.$.",
"$.$.$.$.$.$.$.$.$.$.$.$.$.$.+.& X X X X X X X , k.S.S.S.A.v.f.Z.B X X X X X e.Z.S.S.S.b.d.B.9.X - +.$.$.$.$.#.$.$.$.$.$.$.$.$.$.",
"$.$.$.$.$.$.$.$.$.$.+.$.$.$.' ; X X X X X X X J C.S.S.S.W K L Q j.> X X X X C.S.S.Z.a.L L T n., :  .+.$.$.$.$.$.$.$.$.$.$.$.$.$.",
"$.$.$.$.$.$.$.$.$.$.$.$.$.$.=.. X X X X X X X 0.S.S.S.B.K K L I s., X X X , S.S.S.B.! L K L g.9 . 5.$.$.$.$.$.$.$.$.$.$.$.$.$.$.",
"$.$.$.$.$.$.$.$.$.$.$.$.$.$.*.X X X X X X X X 8.Z.S.S.V.U L K U h., X X X > Z.S.S.V./ I L I v.6 . ;.$.$.$.$.$.$.$.$.$.$.$.$.$.$.",
"$.$.$.$.$.$.$.$.$.$.$.$.$.$.*.; X X X X X X X D N.S.S.S.i.R Y p.u.; X X X X c.S.S.S.b.E U / z.; X ;.$.$.$.$.$.$.$.$.$.$.$.$.$.$.",
"$.$.$.$.$.$.$.$.$.$.$.$.$.$.*.X X X X X X X X ; r.S.S.S.S.S.S.m.6 X X X X X H C.S.S.S.S.S.C.B X X =.$.$.$.$.$.$.$.$.$.$.$.$.$.$.",
"$.$.$.$.$.$.$.$.$.$.$.$.$.#.*.X X X X X X X X X 3 r.S.S.S.S.c.M X X X X X X > 8.C.S.S.S.C.G > X X -.$.$.$.$.$.$.$.$.$.$.$.$.$.$.",
"$.$.$.$.$.$.$.$.$.$.$.$.$.$.*.X X X X X X X X X X X B q.e.H ; X X X X X X X X X 8 9.t.8.9 X X X . -.$.$.$.$.$.$.$.$.$.$.$.$.$.$.",
"$.$.$.$.$.$.$.$.$.$.$.$.$.$.%.X X X X X X X X X X X X X X X X X X X X X X X X X X X X X X X X X X -.$.$.$.$.$.$.$.$.$.$.$.$.$.$.",
"$.$.$.$.$.$.$.$.$.$.$.$.$.$.*.X X X X X X X X X X X X X X X X X X X X X X X X X X X X X X X X X ; =.$.$.$.$.$.$.$.$.$.$.$.$.$.$.",
"$.$.$.$.$.$.$.$.$.#.$.$.$.$.*.; X X X X X X X X X X X X X X X X X X X X X X X X X X X X X X X X X =.$.$.$.$.$.$.$.$.$.$.$.$.$.$.",
"$.$.$.$.$.$.$.$.$.$.$.$.#.#.%.X X X X X X X X X X X X X X X X X X X X X X X X X X X X X X X X X X =.$.$.$.$.$.$.$.$.$.$.$.$.$.$.",
"$.$.$.$.$.$.$.$.$.$.$.$.#.#.*.X X X X X X X X X X X X X X X X X X X X X X X X X X X X X X X X X ; =.$.$.$.$.$.$.$.$.$.$.$.$.$.$.",
"$.#.$.$.$.$.$.$.$.$.$.$.$.$.%.X X X X X X X X X X X X X X X X X X X X X X X X X X X X X X X X X . =.#.#.$.$.$.$.$.$.$.$.$.$.$.$.",
"$.$.$.$.$.$.$.$.$.$.$.$.$.$.%.X X X X X X X X X X X X X X X X X X X X X X X X X X X X X X X X X X =.$.$.$.$.$.$.$.$.$.$.$.$.$.$.",
"$.$.$.$.$.$.$.$.$.$.$.$.$.$.*.X X X X X X X X X X X X X X X X X X X X X X X X X X X X X X X X X ; -.$.$.$.$.$.$.$.$.$.$.$.$.$.$.",
"$.$.$.$.$.$.$.$.$.$.$.$.$.$.*.; X X X X X X X X X X X X X X X X X X X X X X X X X X X X X X X X X =.$.$.$.$.$.$.$.$.$.$.$.$.$.$.",
"$.$.$.$.$.$.$.$.$.$.$.$.#.#.%.X X X X X X X X X X X X X X X X X X X X X X X X X X X X X X X X X X =.$.#.$.$.$.$.$.$.$.$.$.$.$.$.",
"$.$.$.$.$.$.$.$.$.$.$.$.$.#.~ X X X X X X X X X ; X X X X X X X X X X X X X X X X X X X X X X X X -.$.$.#.$.$.$.$.$.$.$.$.$.$.$.",
"$.$.$.$.$.$.$.$.$.$.$.$.$.$.~ X X X X X X X X X X X X X X X X X X X X X X X X X X X X X X X X X X -.$.$.$.$.$.$.$.$.$.$.$.$.$.$.",
"$.$.$.$.$.$.$.$.$.$.$.$.$.$.%.X X X X X X X X X X X X X X X X . X X X X X X X X X X X X X X X X X ;.#.$.$.$.$.$.$.$.$.$.$.$.$.$.",
"$.$.$.$.$.$.$.$.$.$.$.$.$.$.%.X X X X X O d r . X ; X X X X o s u $ X X X X X X X $ u 0 + X X X X :.$.$.#.$.$.$.$.$.$.$.$.$.$.$.",
"$.$.$.$.$.$.$.$.$.$.$.$.#.$.-.X X X X q ` $.} i . X X X ; @ ` +.#.) % X X X X X $ =.$.@.f . X X X ^ $.$.#.#.$.$.$.$.$.$.$.$.$.$.",
"$.$.$.$.$.$.$.$.$.$.$.$.#.$._ . . .   } #.$.+.} e X X X + f $.$.#.#.%.% X X X : %.@.$.#.@.y X X . _ #.$.$.$.$.$.$.$.$.$.$.$.$.$.",
"$.$.$.$.$.$.$.$.$.$.$.$.$.#.O.* . 7 ` $.$.$.$.$.( = X X i ..$.$.$.$.O.f . X . g O.$.$.#.#.[ w X # @.#.$.$.$.$.$.$.$.$.$.$.$.$.$.",
"$.$.$.$.$.$.$.$.$.#.$.$.$.$.$.^ u _ #.$.$.#.$.$.#.` s f ..$.$.#.$.$.$.$.&.p =.@.$.$.$.$.O.$. .u ^ #.$.$.$.#.$.$.$.$.$.$.$.$.$.$.",
"$.$.$.$.$.$.$.$.$.$.$.$.$.$.$.#.#.#.$.$.$.$.$.$.$.$.#.$.$.$.$.#.$.$.$.$.$.$.$.$.$.$.$.$.$.$.$.$.@.$.$.$.$.#.$.$.$.$.$.$.$.$.$.$.",
"$.$.$.$.$.$.$.$.$.$.$.$.$.$.$.$.#.$.$.$.$.$.#.$.$.$.#.$.$.$.$.$.$.$.$.$.$.$.$.$.$.$.$.$.$.$.$.$.#.#.$.$.$.$.$.$.$.$.$.$.$.$.$.$.",
"$.$.$.$.$.$.$.$.#.$.$.$.#.$.$.$.#.$.$.$.$.$.$.$.$.$.$.#.$.$.$.$.$.$.$.$.$.$.$.$.$.$.$.$.$.$.$.$.$.#.$.$.$.$.$.$.$.$.$.$.$.$.$.$.",
"$.$.$.$.$.$.$.$.$.$.$.$.$.#.$.$.$.$.$.$.#.$.$.$.$.$.$.$.$.$.$.$.$.$.$.$.$.$.$.$.$.$.$.$.$.$.$.$.$.#.#.#.$.#.$.$.$.$.$.$.$.$.$.$.",
"$.$.$.$.$.$.$.$.$.$.$.$.$.$.$.#.$.$.$.$.$.$.$.$.$.$.$.$.$.$.$.$.$.$.$.$.$.$.$.$.$.$.$.$.$.$.$.$.$.#.#.$.$.$.$.$.$.$.$.$.$.$.$.$.",
"$.$.$.$.$.$.$.$.$.$.$.$.$.$.$.$.$.$.$.$.$.$.$.$.$.$.$.$.$.$.$.$.$.$.$.$.$.$.$.$.$.$.$.$.$.$.$.$.$.$.$.$.$.$.$.#.$.$.$.$.$.$.$.$.",
"$.$.$.$.$.$.$.$.$.$.$.$.$.$.$.$.$.$.$.#.$.$.$.$.$.$.$.$.$.$.$.$.$.$.$.$.$.$.$.$.$.$.$.$.$.$.$.$.$.$.$.$.$.$.$.$.$.$.$.$.$.$.$.$.",
"$.$.$.$.$.$.$.$.$.$.$.$.$.$.$.$.$.$.$.$.$.$.$.$.#.$.$.$.$.$.$.$.$.$.$.$.#.$.$.$.$.$.$.$.$.$.$.$.$.$.$.$.$.$.$.$.$.$.$.$.$.$.$.$.",
"$.$.$.$.$.$.$.$.$.$.$.$.$.$.$.$.$.$.$.$.$.$.$.$.$.$.$.$.$.$.$.$.$.$.$.$.$.$.$.$.$.$.$.$.$.$.$.$.$.$.$.$.$.$.$.$.$.$.$.$.$.$.$.$.",
"$.$.$.$.$.$.$.$.$.$.$.$.$.$.$.$.$.$.$.$.$.$.$.$.$.$.$.$.$.$.$.$.$.$.$.$.$.$.$.$.$.$.$.$.$.$.$.$.$.$.$.$.$.$.$.$.$.$.$.$.$.$.$.$.",
"$.$.$.$.$.$.$.$.$.$.$.$.$.$.$.$.$.$.$.$.$.$.$.$.$.$.$.$.$.$.$.$.$.$.$.$.$.$.$.$.$.$.$.$.$.$.$.$.$.$.$.$.$.$.$.$.$.$.$.$.$.$.$.$.",
"$.$.$.$.$.$.$.$.$.$.$.$.$.$.$.$.$.$.$.$.$.$.$.$.$.$.$.$.$.$.$.$.$.$.$.$.$.$.$.$.$.$.$.$.$.$.$.$.$.$.$.$.$.$.$.$.$.$.$.$.$.$.$.$.",
"$.$.$.$.$.$.$.$.$.$.$.$.$.$.$.$.$.$.$.$.$.$.$.$.$.$.$.$.$.$.$.$.$.$.$.$.$.$.$.$.$.$.$.$.$.$.$.$.$.$.$.$.$.$.$.$.$.$.$.$.$.$.$.$.",
"$.$.$.$.$.$.$.$.$.$.$.$.$.$.$.$.$.$.$.$.$.$.$.$.$.$.$.$.$.$.$.$.$.$.$.$.$.$.$.$.$.$.$.$.$.$.$.$.$.$.$.$.$.$.$.$.$.$.$.$.$.$.$.$.",
"$.$.$.$.$.$.$.$.$.$.$.$.$.$.$.$.$.$.$.$.#.$.$.$.$.$.$.$.$.$.$.$.$.$.$.$.$.$.$.$.$.$.$.$.$.$.$.$.$.$.$.$.$.$.$.$.$.$.$.$.$.$.$.$.",
"$.$.$.$.$.$.$.$.$.$.$.$.$.$.$.$.$.$.$.$.$.$.$.$.$.$.$.$.$.$.$.$.$.$.$.$.$.$.$.$.$.$.$.$.$.$.$.$.$.$.$.$.$.$.$.$.$.$.$.$.$.$.$.$.",
"$.$.$.$.$.$.$.$.$.$.$.$.$.$.$.$.$.$.$.$.$.$.$.$.$.$.$.$.$.$.$.$.$.$.$.$.$.$.$.$.$.$.$.$.$.$.$.$.$.$.$.$.$.$.$.$.$.$.$.$.$.$.$.$.",
"$.$.$.$.$.$.$.$.$.$.$.$.$.$.$.$.$.$.$.$.$.$.$.$.$.#.$.$.$.$.$.$.$.$.$.#.$.$.$.$.$.$.$.$.$.$.$.$.$.$.$.$.$.$.$.$.$.$.$.$.$.$.$.$.",
"$.$.$.$.$.$.$.$.$.$.$.$.$.$.$.$.$.$.$.$.$.$.$.$.$.$.$.$.$.$.$.$.$.$.$.$.$.$.$.$.$.$.$.$.$.$.$.$.$.$.$.$.$.$.$.$.$.$.$.$.$.$.$.$.",
"$.$.$.$.$.$.$.$.$.$.$.$.$.$.$.$.$.$.$.$.$.$.$.$.$.$.$.$.$.$.$.$.$.$.$.$.$.$.$.$.$.$.$.$.$.$.$.$.$.$.$.$.$.$.$.$.$.$.$.$.$.$.$.$.",
"$.$.$.$.$.$.$.#.$.$.$.$.$.$.$.$.$.$.$.#.$.$.$.$.$.$.$.$.$.$.$.$.$.$.$.$.$.$.$.$.$.$.$.$.$.$.$.$.$.$.$.$.$.$.$.$.$.$.$.$.$.$.$.$.",
"$.$.$.$.$.$.$.$.$.$.$.$.$.$.$.$.$.$.$.$.$.$.$.$.$.$.$.$.$.$.$.$.#.$.$.$.$.$.$.$.$.$.$.$.$.$.$.$.$.$.$.$.$.$.$.$.$.$.$.$.$.$.$.$.",
"#.$.$.$.$.$.$.$.$.$.$.$.$.$.$.$.$.$.$.$.$.$.$.$.$.$.$.$.$.$.$.$.$.$.$.$.$.$.$.$.$.$.$.$.$.$.$.$.$.$.$.$.$.$.$.$.$.$.$.$.$.$.$.$."
};
