/* XPM */
static char *result[] = {
/* columns rows colors chars-per-pixel */
"64 64 128 2 ",
"   c #05052C",
".  c #0C062C",
"X  c #120627",
"o  c #1B0727",
"O  c #1C0827",
"+  c #14072A",
"@  c #1C0729",
"#  c #11082D",
"$  c #1E092C",
"%  c #070630",
"&  c #080731",
"*  c #120730",
"=  c #23082A",
"-  c #2A0B2B",
";  c #310A27",
":  c #3C0B26",
">  c #340A29",
",  c #341432",
"<  c #420B26",
"1  c #4C0C25",
"2  c #470E2E",
"3  c #4C0C28",
"4  c #520D27",
"5  c #5B0D25",
"6  c #510D29",
"7  c #41112E",
"8  c #401D3C",
"9  c #640E26",
"0  c #6F112A",
"q  c #721126",
"w  c #751E36",
"e  c #711F38",
"r  c #55223E",
"t  c #67253E",
"y  c #6D2139",
"u  c #7B2136",
"i  c #7C223A",
"p  c #522341",
"a  c #811123",
"s  c #8C1223",
"d  c #811529",
"f  c #931323",
"g  c #9C1323",
"h  c #831C32",
"j  c #A41523",
"k  c #AC1624",
"l  c #A71D2E",
"z  c #B61725",
"x  c #B91723",
"c  c #BE1826",
"v  c #B21928",
"b  c #802136",
"n  c #8F2438",
"m  c #922538",
"M  c #9E2B3C",
"N  c #A42C3C",
"B  c #C41823",
"V  c #CB1823",
"C  c #D31A23",
"Z  c #DE1A23",
"A  c #E51C23",
"S  c #ED1C24",
"D  c #C5232F",
"F  c #CD333E",
"G  c #DB333D",
"H  c #ED2027",
"J  c #E4212A",
"K  c #EC242C",
"L  c #E42830",
"P  c #ED2C33",
"I  c #E43139",
"U  c #ED323A",
"Y  c #EF383F",
"T  c #853247",
"R  c #B73847",
"E  c #B03A49",
"W  c #C23340",
"Q  c #D13540",
"!  c #E23E47",
"~  c #EC3C43",
"^  c #F03C43",
"/  c #F04349",
"(  c #F14950",
")  c #F2545A",
"_  c #F2595F",
"`  c #F25C62",
"'  c #F26066",
"]  c #F3666B",
"[  c #F46E73",
"{  c #F47176",
"}  c #F4757A",
"|  c #F4797E",
" . c #083F88",
".. c #094088",
"X. c #174B8F",
"o. c #245495",
"O. c #38649F",
"+. c #4D75A9",
"@. c #6285B4",
"#. c #7A98BF",
"$. c #F58387",
"%. c #F28489",
"&. c #F69296",
"*. c #F6969A",
"=. c #F8A3A6",
"-. c #F8A9AD",
";. c #F9B6B9",
":. c #FABDBF",
">. c #8BA4C7",
",. c #90A7C7",
"<. c #91AACB",
"1. c #A5B9D3",
"2. c #FABFC1",
"3. c #B3C4DA",
"4. c #FAC3C5",
"5. c #FBCCCE",
"6. c #FBD3D5",
"7. c #FBDBDD",
"8. c #C4D1E3",
"9. c #C9D5E6",
"0. c #DDE4EE",
"q. c #FDE6E7",
"w. c #FEEBEC",
"e. c #E2E8F1",
"r. c #EDF1F7",
"t. c #FEF3F4",
"y. c #F1F4F9",
"u. c #FFFEFE",
/* pixels */
"                                                                                                                                ",
"                                                                                                                                ",
"                                  %                                                                 &                           ",
"    %   %         %       %   %   % %                                   &       %           %   % %                             ",
"                  %   % %                                                           %                                           ",
"                  %                                                                 %                               %           ",
"                  %                                                                 %                                           ",
"                  %   %                     &           &   .                       %                                           ",
"        %                                       %       % %         &                                                           ",
"    %   %                                                           %                                             % %           ",
"    %   %                                                                                                             %         ",
"        %                                                                                                           %           ",
"                                      %                                 %                                                       ",
"                                                                        %                                                       ",
"        % %                         &   % %   % &       % % % %     %                                                           ",
"                                                                                                                                ",
"                                                                                                                                ",
"                        %   %   %                                     &                                                 .       ",
"                                                    $ , p y m M M m i p , =         %               %                           ",
"                                      %         $ t E Q I P P P P P P U G R T -     %     %         &                           ",
"                                            - i ! P S S S S S S S S S S S S K ~ M , &     %         &                           ",
"                                          : W L H S S S S S S S S S S S S S S S K F y     %               &                     ",
"                  %                   # b I S S S S S S S S S S S S S S S S S S S S K l -                                       ",
"    % % % %       % % % %   % % %   & e P S S S S S S S S S S S S S S S S S S S S S S H c #                                     ",
"                  %         %       h K S S S S S S S S S S S S S S S S S S S S S S S S S B -                                   ",
"                            %     2 L S S S S S S S S H S S S S S S S S S S S S S S S S S S j       .                           ",
"                            %   - D S S S S S S S S S S S S S S S S S S S S S S S S S S S S S 1                                 ",
"                                d J S S S S S S S S S S S S S S S S S S S S S S S S S S S S S k X                               ",
"                              $ J S S S S S S S S S S S S S S S S S S S S S S S S S S S S S S S 9                               ",
"                  %           0 S S S S S S S S S S S S S S S S S S S S S S S S S S S S S S S S B                               ",
"                            o v S S S S S S S S S S S S S S S S S S S S S S S S S S S S S S H S H =                             ",
"                            > C S S S S S S S S S S S S S S S S S S S S S S S S S S S S S S H S H 9                             ",
"                            4 A S S S S S S ) &.4.=.{ ~ S S S S S S S S S _ &.4.;.' P S S S S S S j                 %     %     ",
"          &       &         q S S S S S S [ w.u.u.u.t.5.Y S S S S S S S { w.u.u.u.t.4.P S S S S S k #                 %         ",
"    &                       s S S S S S [ t.u.r.9.0.u.u.2.P S S S S S } t.u.r.9.0.u.u.;.P S S S S v @                           ",
"      &   &     &     %     f S S S S S 4.u.e.@.o.O.9.u.t.' S S S S S 6.u.e.@.o.O.9.u.w._ S S S S z $ % % %                     ",
"                  &         f S S S S S t.u.<..... .+.y.u.=.S S S S S u.u.<..... .+.y.u.*.S S S S z =                           ",
"                  &         f S S S S S t.u.>... . .+.y.u.*.S S S S S u.u.>. ... .+.r.u.%.S S S S z @                           ",
"                  %         f S S S S S q.u.3.X. . .#.u.u.| S S S S S t.u.3.X. . .#.u.u.{ S S S S z @     % %                   ",
"                  %   %     f S S S S S &.u.u.8.<.1.u.u.7.( S S S S S =.u.u.8.,.1.u.u.6.^ S S S S z @                           ",
"                      %     f S S S S S Y 5.u.u.u.u.u.u.$.K S S S S S / 6.u.u.u.u.u.u.[ S S S S S x o           %         &     ",
"                            f S S S S S S S =.7.t.w.4.[ S S S S S S S S U -.7.t.w.4.] S S S S S S x O               %     %     ",
"                            f S S S S S S S K / ` ) P S S S S S S S S S S K / _ ) P S S S S S S S x o                 %         ",
"                            f S S S S S S S S S S S S S S S S S S S S S S S S S S S S S S S S S S x o                           ",
"                            f S S S S S S S S S S S S S S S S S S S S S S S S S S S S S S S S S S x @                     .     ",
"    .                       f S S S S S S S S S S S S S S S S S S S S S S S S S S S S S S S S S S x $                           ",
"                            f S S S S S S S S S S S S S S S S S S S S S S S S S S S S S S S S S S z =                           ",
"        %                   f S S S S S S S S S S S S S S S S S S S S S S S S S S S S S S S S S S z $                           ",
"                            f S S S S S S S S S S S S S S S S S S S S S S S S S S S S S S S S S S z $ %                         ",
"              X             f S S S S S S S S S S S S S S S S S S S S S S S S S S S S S S S S S S z =                   %       ",
"                            f S S S S S S S S S S S S S S S S S S S S S S S S S S S S S S S S S S z = %                         ",
"                            g S S S S S S S S S S S S S S S S S S S S S S S S S S S S S S S S S S z @ %                         ",
"                            f S S S S S S S S S S S S S S S S S S S S S S S S S S S S S S S S S S z @               &           ",
"                            s S S S S S B j B A S S S S S S C j g B S S S S S S S S B j C S S S S z O                           ",
"                            s S S S A z ; X : x S S S S S A 1 X X : x A S S S S S k ; X < C S S S v @                           ",
"                            q S S S f o       - C S S S A 5         o B S S S S B o       : V S S k #                           ",
"          % % % % %     %   3 A S x @   % %     9 Z S S g + %         4 C S S C <     &   & 5 A H g &                           ",
"                            @ a s @             X 1 j f X               : j g ;               9 j :                             ",
"                              . X                   +                   % + X                   +                               ",
"                              %                                         %   %                                                   ",
"                                                                        %   % %                                                 ",
"                                                                        %                   .     & &                           ",
"                                                                                                                                ",
"                                                                                                                                "
};
