/* XPM */
static char *result[] = {
/* columns rows colors chars-per-pixel */
"64 64 83 1 ",
"  c #05052B",
". c #05052C",
"X c #06052C",
"o c #070731",
"O c #05052A",
"+ c #040442",
"@ c #030372",
"# c #030371",
"$ c #030370",
"% c #08072F",
"& c #07072E",
"* c #06062C",
"= c #030389",
"- c #011FD0",
"; c #005AFF",
": c #0202B8",
"> c #04045B",
", c #070730",
"< c #000FFF",
"1 c #004BFF",
"2 c #013DE8",
"3 c #0202B9",
"4 c #0202BA",
"5 c #0302BB",
"6 c #0201B9",
"7 c #0303BB",
"8 c #003CFF",
"9 c #05042C",
"0 c #06052D",
"q c #0311A2",
"w c #04045A",
"e c #070631",
"r c #06062D",
"t c #080733",
"y c #05052D",
"u c #090833",
"i c #011FCF",
"p c #05055F",
"a c #090734",
"s c #080731",
"d c #070648",
"f c #0220D1",
"g c #002DFF",
"h c #0211A1",
"j c #040372",
"k c #001EFF",
"l c #000066",
"z c #000099",
"x c #080732",
"c c #040373",
"v c #050476",
"b c #050574",
"n c #06062E",
"m c #040474",
"M c #060630",
"N c #040475",
"B c #08072E",
"V c #0302B9",
"C c #070630",
"Z c #07062E",
"A c #050474",
"S c #090832",
"D c #080730",
"F c #06052E",
"G c #07062F",
"H c #050575",
"J c #0302BA",
"K c #06052B",
"L c #06052A",
"P c #080734",
"I c #050578",
"U c #07072D",
"Y c #050529",
"T c #040440",
"R c #0312A2",
"E c #090831",
"W c #04048B",
"Q c #07062D",
"! c #06062F",
"~ c #0303BA",
"^ c #040473",
"/ c #040472",
"( c #060576",
/* pixels */
"                                                           .Xo .",
"                                                           .Xo .",
"OOOO  +@@@@#####################$#@@@@@@@##############@@@ .Xo .",
"%%%&*=-;;;;;;;;;;;;;;;;;;;;;;;;;;;;;;;;;;;;;;;;;;;;;;;;;;;:>X, .",
"....<12:::34:33333333333333333333343:::::53333333333637:::;8:%90",
"   =1qw   .e                     re.     ty         9.u   @i2pat",
"ssdf2>+@gggggggggggggggggggggggggggggggggggggggggggggggg-@ =1h  ",
"XXj;: @8gggggggggggggggggggggggggggggggggggggggggggggggg8k  gg  ",
"..@;: ggllllllllllllllllllllllllllllllllllllllllllllllllz;: gg  ",
"  @;: ggllllllllllllllllllllllllllllllllllllllllllllllllz;: gg  ",
"  @;: ggllllllllllllllllllllllllllllllllllllllllllllllllz;: gg..",
" O#;: ggllllllllllllllllllllllllllllllllllllllllllllllllz;:Oggxx",
"  c;5xggllllllllllllllllllllllllllllllllllllllllllllllllz;:Ogg..",
"  v;: ggllllllllllllllllllllllllllllllllllllllllllllllllz;: gg .",
"  b;:Oggllllllllllllllllllllllllllllllllllllllllllllllllz;:.gg .",
" .@;4,ggllllllllllllllllllllllllllllllllllllllllllllllllz;:.gg .",
"  @;: ggllllllllllllllllllllllllllllllllllllllllllllllllz;:.gg .",
"  @;: ggllllllllllllllllllllllllllllllllllllllllllllllllz;:.gg .",
"  @;: ggllllllllllllllllllllllllllllllllllllllllllllllllz;:.gg .",
"  @;: ggllllllllllllllllllllllllllllllllllllllllllllllllz;:.gg .",
"nnm;3nggllllllllllllllllllllllllllllllllllllllllllllllllz;:.gg .",
"MMN;4Mggllllllllllllllllllllllllllllllllllllllllllllllllz;:.gg .",
"  @;: ggllllllllllllllllllllllllllllllllllllllllllllllllz;: gg..",
"BBb;VBggllllllllllllllllllllllllllllllllllllllllllllllllz;: ggCe",
"ZZA;3Zggllllllllllllllllllllllllllllllllllllllllllllllllz;: gg  ",
"  @;: ggllllllllllllllllllllllllllllllllllllllllllllllllz;: gg  ",
"  @;: ggllllllllllllllllllllllllllllllllllllllllllllllllz;: gg  ",
"  @;: ggllllllllllllllllllllllllllllllllllllllllllllllllz;: gg  ",
"  @;: ggllllllllllllllllllllllllllllllllllllllllllllllllz;: gg  ",
"sy@;: ggllllllllllllllllllllllllllllllllllllllllllllllllz;:OggSD",
"F%@;: ggllllllllllllllllllllllllllllllllllllllllllllllllz;:OggnG",
"XB@;: ggllllllllllllllllllllllllllllllllllllllllllllllllz;: gg .",
"sn@;: ggllllllllllllllllllllllllllllllllllllllllllllllllz;:.gg .",
"  @;: ggllllllllllllllllllllllllllllllllllllllllllllllllz;:.gg .",
"  @;: ggllllllllllllllllllllllllllllllllllllllllllllllllz;:.gg .",
"  @;: ggllllllllllllllllllllllllllllllllllllllllllllllllz;:.gg .",
"  @;: ggllllllllllllllllllllllllllllllllllllllllllllllllz;:.gg .",
"OO#;:Oggllllllllllllllllllllllllllllllllllllllllllllllllz;:.gg .",
"DDH;JDggllllllllllllllllllllllllllllllllllllllllllllllllz;:.gg .",
"  @;: ggllllllllllllllllllllllllllllllllllllllllllllllllz;:.gg .",
". @;3 ggllllllllllllllllllllllllllllllllllllllllllllllllz;:.gg .",
"es@;5%ggllllllllllllllllllllllllllllllllllllllllllllllllz;:.gg .",
"X%@;3Oggllllllllllllllllllllllllllllllllllllllllllllllllz;:.gg .",
"Ks@;4 ggllllllllllllllllllllllllllllllllllllllllllllllllz;:.gg .",
"Ls@;4.ggllllllllllllllllllllllllllllllllllllllllllllllllz;:.gg .",
"Ls@;4.ggllllllllllllllllllllllllllllllllllllllllllllllllz;3 gg .",
"Ls@;4.ggllllllllllllllllllllllllllllllllllllllllllllllllz;3*gg .",
"Ls#;4.ggllllllllllllllllllllllllllllllllllllllllllllllllz;4Ggg .",
"Lx$;4.ggllllllllllllllllllllllllllllllllllllllllllllllllz;:Ogg .",
"Ox$;4.ggllllllllllllllllllllllllllllllllllllllllllllllllz;3Zgg .",
" nb;3 ggllllllllllllllllllllllllllllllllllllllllllllllllz;4Ggg .",
" O$;: ggllllllllllllllllllllllllllllllllllllllllllllllllz;: gg .",
"  @;: ggllllllllllllllllllllllllllllllllllllllllllllllllz;:.gg .",
"  @;: ggllllllllllllllllllllllllllllllllllllllllllllllllz;:.gg .",
"..@;: ggllllllllllllllllllllllllllllllllllllllllllllllllz;: gg .",
"PPI;3Oggllllllllllllllllllllllllllllllllllllllllllllllllz;:Ogg .",
"  @;JO@8gggggggggggggggggggggggggggggggggggggggggggggggg8k Ogg*U",
"YYTi2w+@gggggggggggggggggggggggggggggggggggggggggggggggg-@ =1RED",
"DD%W1hw      ssD%%%%%%D* Q&%%%%%%DsZ.    OZ!G, O   % OE   @-2wYY",
"   .<12::::::3::::::::33343:::::::3:::::::3443:::::J::~:::;8:   ",
"     =-;;;;;;;;;;;;;;;;;;;;;;;;;;;;;;;;;;;;;;;;;;;;;;;;;;;:w    ",
"      +@@@@@@@@@@@@@@@A^/Ac@@@@@@@@@@@@@@@@@@@@@@@@b@#(@@@      ",
"                      Gr*G0.                       % OE         ",
"       .....          Gr*G0.         ......        % OE       .."
};
