/* XPM */
static char *result[] = {
/* columns rows colors chars-per-pixel */
"64 64 210 2 ",
"   c #92CBC7",
".  c #91CBC7",
"X  c #91CBC6",
"o  c #92CBC6",
"O  c #91CAC5",
"+  c #92CCC7",
"@  c #97CCC1",
"#  c #A7CEAD",
"$  c #B8D198",
"%  c #D0D47A",
"&  c #DFD667",
"*  c #E3CE5B",
"=  c #DCCC63",
"-  c #C9CB7C",
";  c #B5CB98",
":  c #A1CBB3",
">  c #93CBC5",
",  c #9ACCBC",
"<  c #F6DA4B",
"1  c #FDD842",
"2  c #FEC135",
"3  c #FEB42F",
"4  c #FEAE2A",
"5  c #FEB02B",
"6  c #FFBE2F",
"7  c #FDCB36",
"8  c #F2CC45",
"9  c #C9CB7D",
"0  c #97CBC1",
"q  c #94CBC4",
"w  c #C1D28D",
"e  c #F5DA4D",
"r  c #FEC838",
"t  c #FEAB2B",
"y  c #FE9C24",
"u  c #FE9923",
"i  c #FEA026",
"p  c #FE9D25",
"a  c #FFAE2A",
"s  c #FFC732",
"d  c #EBCC4E",
"f  c #ADCBA2",
"g  c #C9D382",
"h  c #FDD641",
"j  c #FEB931",
"k  c #FE9B24",
"l  c #FE9A23",
"z  c #FEBE34",
"x  c #FFCC35",
"c  c #FEA125",
"v  c #FE9F25",
"b  c #FFB92D",
"n  c #F5CB41",
"m  c #ABCBA5",
"M  c #93CBC6",
"N  c #B7D199",
"B  c #F9D846",
"V  c #FEB430",
"C  c #FE9A24",
"Z  c #FEA127",
"A  c #FED73F",
"S  c #FFD037",
"D  c #FFAF2A",
"F  c #FFBA2E",
"G  c #ECCC4D",
"H  c #9FCBB5",
"J  c #A2CDB4",
"K  c #EFD953",
"L  c #FEBA32",
"P  c #FEB731",
"I  c #FEDB41",
"U  c #FFC130",
"Y  c #FE9D24",
"T  c #FFC331",
"R  c #CFCC74",
"E  c #CBD380",
"W  c #FDCD3C",
"Q  c #FED33D",
"!  c #FFCB33",
"~  c #FEA427",
"^  c #F3C842",
"/  c #B2CB9C",
"(  c #9ACCBE",
")  c #E5D660",
"_  c #FEA228",
"`  c #FEAC2C",
"'  c #FEB530",
"]  c #FEC236",
"[  c #FFCC33",
"{  c #FFC531",
"}  c #FFB32C",
"|  c #FFAB29",
" . c #FFA426",
".. c #FE9E25",
"X. c #FEC032",
"o. c #CECC75",
"O. c #B1D0A1",
"+. c #F2D34E",
"@. c #FEA528",
"#. c #FEB831",
"$. c #FED63F",
"%. c #FED940",
"&. c #FFC932",
"*. c #FFB42C",
"=. c #E7CC54",
"-. c #94CBC5",
";. c #C7D386",
":. c #F9CF42",
">. c #FE9E26",
",. c #FEAA2B",
"<. c #FED23D",
"1. c #FEB62C",
"2. c #FEA928",
"3. c #F6CC3F",
"4. c #9ACBBC",
"5. c #D1D479",
"6. c #FDCB3B",
"7. c #FE9C25",
"8. c #FEA82A",
"9. c #FEB42C",
"0. c #FEA527",
"q. c #FEC933",
"w. c #9ECBB6",
"e. c #FECB3B",
"r. c #FECE3B",
"t. c #FEAC29",
"y. c #9FCBB6",
"u. c #FACF41",
"i. c #FEA428",
"p. c #FEDA40",
"a. c #FFB52C",
"s. c #FEA828",
"d. c #F7CC3E",
"f. c #9BCBBB",
"g. c #B4D09C",
"h. c #F3D24C",
"j. c #FEA327",
"k. c #FEA92A",
"l. c #FFB22B",
"z. c #EACC50",
"x. c #9CCCBB",
"c. c #E7D65D",
"v. c #FEB12E",
"b. c #FFC330",
"n. c #FFBF30",
"m. c #D2CC70",
"M. c #C8D384",
"N. c #FDCF3E",
"B. c #FEC336",
"V. c #FECD3B",
"C. c #FFBD30",
"Z. c #FEA627",
"A. c #F2C944",
"S. c #AFCBA0",
"D. c #A6CEAE",
"F. c #F3D84F",
"G. c #FECA39",
"H. c #FE9F26",
"J. c #FEA728",
"K. c #FFC230",
"L. c #FFA125",
"P. c #D7CC6A",
"I. c #96CBC2",
"U. c #C0D28E",
"Y. c #FBD542",
"T. c #FEAF2D",
"R. c #FEC035",
"E. c #FEA227",
"W. c #FFAA28",
"Q. c #FFBD2E",
"!. c #FEA226",
"~. c #FE9B23",
"^. c #F0CC47",
"/. c #A4CBAE",
"(. c #CCD480",
"). c #FEB52F",
"_. c #FEA025",
"`. c #FFB72C",
"'. c #F4CB42",
"]. c #AFCC9F",
"[. c #C2D28C",
"{. c #EDD755",
"}. c #FEC638",
"|. c #FEAC2B",
" X c #FEA126",
".X c #FCC434",
"XX c #E7CB54",
"oX c #B1CB9D",
"OX c #A8CEAB",
"+X c #E1D765",
"@X c #FCD843",
"#X c #FECC3A",
"$X c #FEBF34",
"%X c #F8CC3C",
"&X c #CBCC79",
"*X c #A0CBB4",
"=X c #A9CEAA",
"-X c #EBD859",
";X c #EECF4C",
":X c #E8CC52",
">X c #D9CC66",
",X c #C1CB87",
"<X c #9ECBB7",
"1X c #96CCC2",
"2X c #99CCBE",
"3X c #9BCBBC",
"4X c #99CBBE",
"5X c #95CBC4",
"6X c #91CAC6",
"7X c #91CAC7",
/* pixels */
"              .                       .             .   X   . .                                           X                     ",
"        .                                                                                                                       ",
"                                                                                                                                ",
"  .                 .                                                         o                                         o o     ",
"                                                            .                                                         O         ",
"                                                    .       .                                                                   ",
"                                                                                                                                ",
".                                                       .                                                                       ",
"                                                                                                                            X   ",
"                                                                                                                                ",
"                                    +                                                                                           ",
"                                                                                                                                ",
"                                                                                                                                ",
"                                                                                                                                ",
"                        +                                                                                                       ",
".   . .     . .       .   .                       .                                                                             ",
"                                                    o                                                                           ",
"                                                                                                                                ",
"                                                                                                                                ",
"                                                                                                                                ",
".                                                                                   .                                           ",
"              . . .                                                                                                             ",
"                                                      @ # $ % & * = - ; : >                                                     ",
"    +                                               , & < 1 2 3 4 5 6 7 8 9 0                                                   ",
"                                                q w e r t y u y i u u p a s d f                                                 ",
"                                              q g h j k u u l z x c u u u v b n m M                                             ",
"                                            o N B V C u u u Z A S D u u u u y F G H                                             ",
".                                           J K L u u u u u P I S U k u u u u Y T R q                                           ",
"                                            E W p u u u u k Q I S ! D u u u u u ~ ^ /                                           ",
"                                          ( ) V u k _ ` ' ] I I S [ { } |  ...u y X.o.                                          ",
"      +                                   O.+.@.#.Q $.%.I I I I S [ [ [ [ &.s U u *.=.-.+                                       ",
"+                                         ;.:.>.,.<.I I I I I I S [ [ [ [ [ ! 1.u 2.3.4.                                        ",
"                                          5.6.7.u 8.<.I I I I I S [ [ [ [ ! 9.k u 0.q.w.                                        ",
"                                          5.e.7.u u Z r.I I I I S [ [ [ ! t.C u u 0.q.y.                                        ",
"                                          ;.u...u u u i.p.I I I S [ [ [ a.u u u u s.d.f.                                        ",
"                                          g.h.j.u u u k.I I I I S [ [ [ b u u u u l.z.q +                                       ",
"                                          x.c.v.u u u P I I I I S [ [ [ b.u u u k n.m.                                          ",
"                                            M.N...u u B.I I p.V.C.&.[ [ ! l u u Z.A.S.                                          ",
"                    .                       D.F.' u u G.I p.P H.y J.K.[ [ L.u l U P.I.                                          ",
"                                            > U.Y.T.l R.L E.u u u u k W.Q.!.~.a.^./.                                            ",
"                                              q (.Y.).p u u u u u u u u l _.`.'.].M                                             ",
"                                                @ [.{.}.|.E.y u u u y  Xa .XXXoX                                                ",
"                                                  -.OX+X@X#X$XP 5 l.b b.%X&X*X                                                  ",
"  .       .                 X                         > =XM.& -X;X:X>X,X<X                                                      ",
".   .     .   .   .     .   .   . .                       o 1X2X3X4X5X                                                          ",
"    .       . . . .   . .                   . .   .           . .                             .                                 ",
".                               . .         .                                                                                   ",
"                  .     .           .                             . .                                                           ",
"  . . . .   . . . . . . .         . .     . . .   .   .   . .                                           .                       ",
".   . .       . . .       .         . . . .         .     o                                                                     ",
". . .   . . . . . . . . . . .   . .       . .   . .   . .     .   .                   .                 o   .                   ",
"    .   .     . . . . .     . .       .   . . . . .   . . . .   .     .                             .               .           ",
"  . .       .   . . .   .   .       . .     . .   . . . .   .   .                                                               ",
". . . . . . . . . .     .   .   . .     . .     . . .   . . .   .                                   .                           ",
". . . .   . . . . . . . . . . .   . . .     . . . . . . . . . .   . .                 .                     .                   ",
". . . . . . . . . . . . . . . . . . .     . .     . . . . . . . . . . .       . . . . .             . .     .       .     .     ",
". . . . . . . . . . . . . . . . . . . . . . . X . . . . . . . . . . . . .   .   . . . . .           .     . . o .   .         . ",
". . . . . X X . . . . . . . . . . . . . . . . . . . . . . 6X. X . . . .   . . . . .   . . . . . . . . .   . .   . .             ",
". . . . . X . . X . X . . . . . . . . . . . . . . X . . . . . . .   . .     . .   . .   . .   . . .   . . . . . X .             ",
". . . . . X . . . .   . . . . . X . . . . . . . . . X   X . . .     . . . . . .     . X       . . . . .     .   X X X .         ",
". . . . . . . . . . . . . . . . . . . . . . . . . . . X . . X . . . . . . .     . . . .   . X . . . X .   X . . . X     X . .   ",
". . . . . . . . . . X . . . . . . . . X X . X . . . . X X X X . . X . . . . . . . . . .   . . . . . . . . . . . . o . . .   . o ",
". . . . . . . . . . . . . . . . X . . . X X X X . . . X X X . . . X . . . . . . . . . X       X . X .     . .   .     .     . . ",
". . . . . . . . . . . . 7X. . . X . . . . . . . . . X . X . X . . . . . X . .           .     . X X . . .   .             .     "
};
