/* XPM */
static char *result[] = {
/* columns rows colors chars-per-pixel */
"64 64 158 2 ",
"   c #70CCC8",
".  c #70CCC7",
"X  c #72CCC8",
"o  c #72CCC7",
"O  c #71CBC7",
"+  c #71CAC6",
"@  c #70CAC6",
"#  c #DD5F62",
"$  c #FF4D53",
"%  c #FF8E92",
"&  c #FF8C90",
"*  c #FF8388",
"=  c #FF9499",
"-  c #BB8788",
";  c #71CDC8",
":  c #75C5C2",
">  c #FF535B",
",  c #FF777C",
"<  c #FF151F",
"1  c #F34349",
"2  c #BF8182",
"3  c #FF797E",
"4  c #FF1A22",
"5  c #BF8181",
"6  c #B38E8E",
"7  c #FF545B",
"8  c #FF696F",
"9  c #B38D8C",
"0  c #FF2C33",
"q  c #FF1720",
"w  c #C57476",
"e  c #FF2029",
"r  c #C57475",
"t  c #FF2932",
"y  c #FF1A24",
"u  c #F62A32",
"i  c #F72931",
"p  c #FF383F",
"a  c #BF7678",
"s  c #FF2129",
"d  c #FF3139",
"f  c #71CAC5",
"g  c #FD1820",
"h  c #FF1F28",
"j  c #70CAC5",
"k  c #AF8182",
"l  c #FF272F",
"z  c #FF1B23",
"x  c #AF8181",
"c  c #FF1820",
"v  c #FFBCBE",
"b  c white",
"n  c #FFABAE",
"m  c #FF1B25",
"M  c #FEE5E6",
"N  c #FF4E54",
"B  c #FFA0A4",
"V  c #A08D8D",
"C  c #6CC6C2",
"Z  c #C2D4E5",
"A  c #FF3C43",
"S  c #DEE8F1",
"D  c #C4D5E6",
"F  c #DC3D41",
"G  c #9F8C8B",
"H  c #FF8489",
"J  c #AEC6DD",
"K  c #003D8B",
"L  c #CBDAE8",
"P  c #FF2C34",
"I  c #FF141D",
"U  c #CC4C4F",
"Y  c #FEF1F2",
"T  c #FF454C",
"R  c #FF9DA2",
"E  c #FF1620",
"W  c #DA353B",
"Q  c #FEEEED",
"!  c #FF4048",
"~  c #FF999E",
"^  c #DD2F35",
"/  c #FF6E74",
"(  c #DCE7F0",
")  c #004590",
"_  c #003F8D",
"`  c #EDF2F7",
"'  c #FF1D27",
"]  c #FF222A",
"[  c #FFB9BD",
"{  c #FF2931",
"}  c #FF656C",
"|  c #FF7278",
" . c #FF5F64",
".. c snow",
"X. c #73CCC8",
"o. c #E22B32",
"O. c #E5252B",
"+. c #E4252B",
"@. c #DA3338",
"#. c #CC1C22",
"$. c #8F6566",
"%. c #EA1119",
"&. c #9D5455",
"*. c #9E5254",
"=. c #E41219",
"-. c #8D6869",
";. c #FB131C",
":. c #C8494C",
">. c #F7131C",
",. c #6A9D9A",
"<. c #6DC3BF",
"1. c #D61B22",
"2. c #6FCBC7",
"3. c #6DC5C1",
"4. c #C42D32",
"5. c #729996",
"6. c #71CBC6",
"7. c #6FC8C4",
"8. c #A05B5C",
"9. c #B16667",
"0. c #66A8A4",
"q. c #68BDB9",
"w. c #69BCB8",
"e. c #6CC4C0",
"r. c #FF141E",
"t. c #E9121B",
"y. c #70C9C5",
"u. c #F7121C",
"i. c #FF151E",
"p. c #68B6B3",
"a. c #709997",
"s. c #818886",
"d. c #A06263",
"f. c #67AFAB",
"g. c #6CC2BF",
"h. c #DF151E",
"j. c #F8131C",
"k. c #6FCBC6",
"l. c #E61118",
"z. c #F3121A",
"x. c #75918F",
"c. c #897676",
"v. c #F1121A",
"b. c #FB131D",
"n. c #6C9F9D",
"m. c #6E9C9A",
"M. c #E60F18",
"N. c #AB4446",
"B. c #6AC4BF",
"V. c #E01119",
"C. c #80918E",
"Z. c #67C0BC",
"A. c #63B9B5",
"S. c #62B5B1",
"D. c #6AC2BE",
"F. c #60B0AC",
"G. c #6CC2BE",
"H. c #66B6B2",
/* pixels */
"        .         . .     .   . . . . . . . . X X . o . . . . o X o X o o o o o o o . o . . . . o o o o o o o o o o o o o o o o ",
"X                       X . X     .   X X X X X X X o o o X X X X X X X X X X o o o o o o o o o o o o o o o o o o o o o o o o o ",
"      X               .   . . . .   X X X X X   X X . . X o X X X X o X o o o o o o o . o o o o o o o o o o o o o o o o o o o o ",
"X X X X X X X       X   X X       X . o X X X X   X . o X X X X X X X X X X o X o o o o o o o o o o o o o o o o o o o o o o o o ",
"X X X X X X X X X X X X X X X X   X X X X X X X X X X X X X X X X X X X X X o X o o o o o o o o o o o o o o o o o o o o o o o o ",
"X X X                 X   X               X X X   X X X X X X X X X X X X X X X X X o o o o o o o o o o o o o o o o o o o o o o ",
"X X X             X   X     X X X   X X X X X X X X X X X X X X X X X X X X X X o o o o o o o o o o o o o o o o o o o o o o o o ",
"X X X X X X X     X X       X X   X X X X X X X X X X X X X X X X X X X X X X o o o o o o o o o o o o o o o o o o o o o o o o o ",
"X X X X X   X   X       X X X X X X     X X X X X X X X X o X X X X X X X o X o o X o o o o o o o o o o o o o o o o o o o o o o ",
"X X X X X X X X X X X X X X X X X X X X X X X X X X X X X X O + + O X X X o X X o X X X X o o o o o o o o o o o o o o o o o o o ",
"X X X X X   X X X X X X X X X   X X X X X X X X X X @ # $ % & * * = % $ - @ X X X o X X X X X o X o o o o o o o o o o o o o o o ",
"X ; X X X X X X X X X X X X X X X X X X X X X : > , < < < < < < < < < < < < , 1 : X X o o o o o o o o o o o o o o o o o o o o o ",
"; ; X X X X X X X X X X X X X X X X X X X X 2 3 < < < < < < < < < < < < < < < 4 3 5 X o o o o o o o o o o o o o o o o o o o o o ",
"X ; X X X X X X X X X X X X X X X X X X 6 7 < < < < < < < < < < < < < < < < < < < < 8 9 o o o o o X o o o o o o o o o o o o o o ",
"X X ; X X X X X X X X X X X X X X X X 0 q < < < < < < < < < < < < < < < < < < < < < < q 0 o o o o o X o X o o o o o o o o X o o ",
"X X X X X X X X X X X X X X X X X X w e < < < < < < < < < < < < < < < < < < < < < < < < e r X X o o o o o o o o o o o o o o o o ",
"; X X ; X X X X X X X X X X X X X t y < < < < < < < < < < < < < < < < < < < < < < < < < < y t o X o o o o o o o o o o o X o o o ",
"; ; ; X X X X X X X X X X X X X u < < < < < < < < < < < < < < < < < < < < < < < < < < < < < < i X o X X X X X X X X X X X X X X ",
"; ; ; X X X X X X X X X X X X + p < < < < < < < < < < < < < < < < < < < < < < < < < < < < < < p a o X X X X X X X o o o o o o o ",
"; X X X X X X X X X X X X X + s < < < < < < < < < < < < < < < < < < < < < < < < < < < < < < < < d f X o X X X o o o o X o o o o ",
"X ; X X X X X X X X X X X X g q < < < < < < < < < < < < < < < < < < < < < < < < < < < < < < < < < g o X X X X X X o o X o X o o ",
"X ; ; X X X X X X X X X X @ h < < < < < < < < < < < < < < < < < < < < < < < < < < < < < < < < < < h j o X X X X X o X o X o o o ",
"X X X X X X X X X X X X X k < < < < < < < < < < < < < l < < < < < < < < < < < < < < < < z < < < < < x o X X X X X X o X o o o o ",
"; X X X X X X X X X X X X c < < < < < < < < < < v b b b b b n < < < < < < < < < < b b b b b b q < < c f X X X X X X o o o X o o ",
"X X X X X X X X X X X X O m < < < < < < < < < M b b b b b b b b < < < < < < < N b b b b b b b b B < m V X X X X X X X o o o o o ",
"X X X X X X X X X X X X C < < < < < < < < < < b b b b b b Z b b A < < < < < < b b b b b b S D b b < < F X X X X X X X X o X o o ",
"X X X X X X X X X X X X G < < < < < < < < < H b b b b J K K K K b < < < < < < b b b b b K K K K L P < I X X X X X X X X X o X o ",
"X X X X X X X X X X X X U < < < < < < < < < Y b b b b K K K K K b < < < < < T b b b b b K K K K K R < E X X X X X X X X X X X o ",
"; X X X X X X X X X X X W < < < < < < < < < Q b b b b K K K K K b < < < < < ! b b b b b K K K K K ~ < < X X X X X X X X X X o o ",
"X X X X X X X X X X X X ^ < < < < < < < < < / b b b b ( K K K ) b < < < < < < b b b b b _ K K K ` ' < < X X X X X X X X ; X o X ",
"X ; X X X X X X X X X X ^ < < < < < < < < < < b b b b b b b b b ] < < < < < < b b b b b b b b b b < < < X X X X X X X o X X o X ",
"X X X X X X X X X X X X ^ < < < < < < < < < < [ b b b b b b b b < < < < < < < { b b b b b b b b } < < < X X X X X X X X X X X X ",
"X X X X X ; X X X X X X ^ < < < < < < < < < < < | b b b b b  .< < < < < < < < < < ..b b b b b < < < < < X X X X X X X X X X X ; ",
"X X X X X X X X X X X X ^ < < < < < < < < < < < < < < < < < < < < < < < < < < < < < < < < < < < < < < < X X X X X X X X X X X X ",
"X X X X X X X X X X X X ^ < < < < < < < < < < < < < < < < < < < < < < < < < < < < < < < < < < < < < < < X X X X X X X X X X X ; ",
"X X X X X X X X X X X X ^ < < < < < < < < < < < < < < < < < < < < < < < < < < < < < < < < < < < < < < < X X X X X X X X X o o X ",
"X X X X X X X X X X X X ^ < < < < < < < < < < < < < < < < < < < < < < < < < < < < < < < < < < < < < < < X ; X X X X X X X X X X ",
"X X X X X X X X X X X X ^ < < < < < < < < < < < < < < < < < < < < < < < < < < < < < < < < < < < < < < < X X ; X X X X X o X ; X ",
"X X X X X X X X X X X X ^ < < < < < < < < < < < < < < < < < < < < < < < < < < < < < < < < < < < < < < < X X X X X X o X o o X X ",
"X X X X X X X X X X X X ^ < < < < < < < < < < < < < < < < < < < < < < < < < < < < < < < < < < < < < < < ; X X X X X X o X X o X.",
"X X X X X X X X X X X X ^ < < < < < < < < < < < < < < < < < < < < < < < < < < < < < < < < < < < < < < < X X ; X X X X X X X ; X ",
"X X     X X X X X   X X ^ < < < < < < < < < < < < < < < < < < < < < < < < < < < < < < < < < < < < < < < X X X X X X X o X ; ; X ",
"X X X X X X X X X X X X ^ < < < < < < < < < < < < < < < < < < < < < < < < < < < < < < < < < < < < < < < X X X o X X X X X X X o ",
"X X X X   X     X   X X ^ < < < < < < < < < < < < < < < < < < < < < < < < < < < < < < < < < < < < < < < X X X X X o o o X X X o ",
"X X X X X X X X X   X   ^ < < < < < < < < < < < < < < < < < < < < < < < < < < < < < < < < < < < < < < < X X X X X X X X X X X X ",
"X X X   X   X X X   X X o.< < < < < < < < < < < < < < < < < < < < < < < < < < < < < < < < < < < < < < < X X X X X X o o X X o X ",
"X X X X X     X X   X X O.< < < < < < < < < < < < < < < < < < < < < < < < < < < < < < < < < < < < < < < X X X X o o o X o o o o ",
"  X X       X X         +.< < < < < < < < < < < < < < < < < < < < < < < < < < < < < < < < < < < < < < < X X X X X X o X X X o X ",
"                        ^ < < < < < < < < < < < < < < < < < < < < < < < < < < < < < < < < < < < < < < < X X X o X X X o o o o o ",
"                        @.< < < < < < #.$.I < < < < < < < < %.&.*.I < < < < < < < < < =.-.;.< < < < < < X X X X X X X X o X o o ",
"X X                     :.< < < < >.,.    <.1.< < < < < < 1.2.X X 3.4.< < < < < < < 5.6.o 7.8.< < < < < X X o o o o o o o o o o ",
"X                       9.< < < < 0.        q.< < < < < < w.    X X e.r.< < < < < t.O X X X y.u.< < < i.X o X X o o o o o o o o ",
"                        p.< < < a.            s.< < < < d.X X X X X X f.< < < < ;.7.X X X X o g.h.< < j.X o o o o o o o o o o o ",
"                        k.l.z.x.                c.v.b.n.          X     m.M.I N.B.X X   X X o X + V.j.C.X o o X o o o o o o o o ",
"                          Z.A..                 2.q.S.      X X   X X   X D.F.+ X X X X X X X X X G.H.O o X o o o o o o o o o o ",
"                                                                  X         X     X X X X X X X o X X X X X o X X o X X o X o o ",
"                    .         . . . .         .                   X . .   . o .   X X o . o X o X X o o o o o o o o o o o o o o ",
"                  . . . . . . . . . . . .   .       . .   .   X   . . . o     .   X   o o o o o X X o o o o o o o o o o o o o o ",
"      . . . . . . . . O . . .   . . . .   . . . .   . . . . . . . . . . . . . . . . . . o o . o o o o o o o o o o o o o o o o o ",
"    .   . . . . . O O . . . . . . O . . . . . .     . . . . . . . . . . . . . . . . . . . . . . o o o o X o o o o o o o o o o o ",
". . . . . . . . . O O O . . . . O . . . . . . . . . . . . . .         . . . . . . . o X X o . . . X o X o o o o o o o o o o o o ",
". . . . . . . . . . O . . . . . O . O . . . . . . . . . . . . . . . . . . . . . . . . . . . . . . o o . . o o o o o o o o o o o ",
". . . . O O O O O O O O . . . . . . O . . . . . . . . . . . . . . . . . . . . . . . . . . . o . . o o . o o o o o o o o o o o o ",
". . . . . O O . O O O O . . . . O O . . . . . . . . . . . O . . . . . . . . . . . . . . . . . . . . . . o . o o o o o o o o o o "
};
