/* XPM */
static char *_08053ff742e4250ce8e88d681248067Ze139pPjCZsICzRj[] = {
/* columns rows colors chars-per-pixel */
"64 64 132 2 ",
"   c #661F0B",
".  c #66230D",
"X  c #69250E",
"o  c #6E280F",
"O  c #72260C",
"+  c #75290E",
"@  c #782B0F",
"#  c #6B2711",
"$  c #6D2A14",
"%  c #6F2C1B",
"&  c #752B12",
"*  c #7A2E14",
"=  c #722E1A",
"-  c #7A2F18",
";  c #6D301D",
":  c #763017",
">  c #7C3116",
",  c #75321D",
"<  c #7D331A",
"1  c #7E381F",
"2  c #753222",
"3  c #7A3623",
"4  c #7D3A25",
"5  c #7E3B2A",
"6  c #803417",
"7  c #82361B",
"8  c #84391E",
"9  c #883B1F",
"0  c #833720",
"q  c #863B22",
"w  c #893D24",
"e  c #843E29",
"r  c #8A3F29",
"t  c #8B4026",
"y  c #86412B",
"u  c #8D422A",
"i  c #91452C",
"p  c #93482F",
"a  c #844331",
"s  c #8D4632",
"d  c #8F4832",
"f  c #8C4A39",
"g  c #924631",
"h  c #954B33",
"j  c #984D35",
"k  c #964E39",
"l  c #9A4E38",
"z  c #975137",
"x  c #9C5137",
"c  c #9C523C",
"v  c #A1553D",
"b  c #945443",
"n  c #9E5641",
"m  c #9C5A45",
"M  c #A25642",
"N  c #A45A45",
"B  c #A55B48",
"V  c #A55C49",
"C  c #A75F49",
"Z  c #A55C4B",
"A  c #A65D4A",
"S  c #A55E4A",
"D  c #A05F4D",
"F  c #A65D4C",
"G  c #A55E4C",
"H  c #A75E4D",
"J  c #A55D4E",
"K  c #A55C49",
"L  c #AA5D4B",
"P  c #A95E4B",
"I  c #A85F4C",
"U  c #A85F4E",
"Y  c #AB5F4F",
"T  c #AC5F4D",
"R  c #A95E4A",
"E  c #AA6047",
"W  c #A7604D",
"Q  c #AB604B",
"!  c #A9604D",
"~  c #AB604D",
"^  c #A8614F",
"/  c #AA614E",
"(  c #AB624F",
")  c #AD624D",
"_  c #AD624F",
"`  c #AE634E",
"'  c #AD654D",
"]  c #AA604D",
"[  c #A76350",
"{  c #A66352",
"}  c #A56355",
"|  c #A96051",
" . c #AA6150",
".. c #AC6350",
"X. c #AE6350",
"o. c #AC6352",
"O. c #AF6353",
"+. c #AB6450",
"@. c #AD6451",
"#. c #AE6650",
"$. c #AD6453",
"%. c #AC6553",
"&. c #AE6552",
"*. c #AD6652",
"=. c #AD6455",
"-. c #AE6554",
";. c #AF6655",
":. c #AF6657",
">. c #AB6251",
",. c #AF6558",
"<. c #AE6959",
"1. c #B06550",
"2. c #B26551",
"3. c #B16651",
"4. c #B26553",
"5. c #B16653",
"6. c #B26754",
"7. c #B16953",
"8. c #B36853",
"9. c #B16857",
"0. c #B26956",
"q. c #B16A56",
"w. c #B36A57",
"e. c #B56A57",
"r. c #B56D57",
"t. c #B26958",
"y. c #B46B58",
"u. c #B16D5A",
"i. c #B97260",
"p. c #B6766C",
"a. c #BE7A6D",
"s. c #BA7E74",
/* pixels */
"v X.@.5.1.5.4.4.@.` ` X.4.0.4.1.1.r.0.0.0.8.u.p.s.a.i.q.' @.#.N 9 @.` Q @.u.t.@.@.4.' ' @.@.X.` @.4.4.4.7.7.7.7.q.*.t.r.@.@.4.0.",
"h c g i i j i i w t w w u u t t t u i i p j z m D m z h u i x z > v p t p x v x z g i t u i i w i u u t 9 i x x x k u w q w j E ",
"p 9 q * * 6 - 6 < 6 6 7 7 7 7 6 7 7 9 8 9 7 q e , < 7 9 7 t t g > p t 9 0 7 9 0 q 9 9 7 8 8 8 7 7 7 7 7 8 6 6 7 6 > > > > 6 q x ",
"i > : @ - - 6 - > 7 6 7 7 7 9 7 7 9 q w w 9 4 4 4 t q 8 7 9 q p > p 9 7 7 7 9 9 q q 7 9 9 q q 8 q 9 7 9 8 6 8 7 7 7 6 > > < > u ",
"w > * > > > - 6 7 6 6 8 7 7 q 7 8 w 9 8 9 8 q 5 5 8 8 w 8 8 q u @ h 7 8 q 8 8 8 w 8 w 9 q q q q 7 w 9 7 0 7 7 7 6 6 6 < < < > u ",
"t 7 > > > * 6 6 6 8 7 7 9 q 8 q 8 w w t t y 4 4 q t q 8 t 9 9 t * k 9 w q q q t 8 w w t w w q q q w q q 7 9 9 7 7 7 6 < > > > u ",
"t 7 * 7 > > < 7 6 8 7 7 7 w q w q w t w t 9 5 5 4 8 t t 8 8 q t * p 9 q 8 w t t 9 q w e w t w w w 8 w 9 7 8 7 7 7 8 6 7 > > > u ",
"t 6 < > 7 9 7 > 7 7 7 7 9 8 w q 8 t t t y t e 5 y t t 8 q t w t @ h w w t q w w t t t t t t w t w q w 9 q q q 7 6 7 7 7 6 < 7 u ",
"u 8 w > < 6 7 9 8 8 q q e y t t u u u u u u e e y t t q q t i w & p u t e t w t y u u u y w t t t w w w y t e 7 0 8 7 7 7 1 t d ",
"q e 0 1 7 4 7 8 1 t q q q q 5 q e w y y r r e 5 e q q 0 q e r q @ y y q q 0 q q e q q y q q q 0 0 q e e q e 0 q q q 0 q e q e y ",
"> < < - < > < < > > > > * - > + & - > > - - = = * - * > < < - > & < > > < < - > > < & > - * > > o * > - * * & > - - * * - - - - ",
"B X.J ^ S P ' 7./ S W ^ ' ^ Y g u X.S N B B [ } B B B P | T T T ^ P ` ' O.-.X.@.<.@.J S Y ^ W @.6 N J N K E W E J S B B B B Y ' ",
"i q 8 8 7 8 9 7 > > 9 t 9 q t w 8 p 8 > > > < , 6 7 7 8 8 q q 9 q w w 9 9 t x x h t 8 9 t 9 p N * j 9 6 7 6 7 8 7 9 7 7 7 9 w p ",
"7 7 7 7 6 < < > > > @ @ & 9 7 w 8 u w > > < : < 7 6 7 9 8 8 8 q q q 9 w 9 q 7 9 7 7 7 < 7 7 w x & i q 8 9 7 8 6 7 8 7 8 7 7 7 7 ",
"7 9 7 6 7 7 6 < > > > @ * * > q 7 8 > > > < < < 7 7 9 7 9 9 q q q w w 9 w 9 q 9 7 7 7 6 7 < 6 c * g 6 7 7 7 7 7 q 9 8 8 8 8 7 8 ",
"q 9 w 7 7 6 7 6 < > > @ * * 6 q 7 7 > > > 6 7 < 7 7 q q w w w t w t 9 w w w q q 9 7 7 6 6 < 7 x * k 6 7 7 7 q 7 q q 8 t 8 t 8 8 ",
"q q 9 7 q 6 7 7 < > < > > @ 7 7 7 7 - - 6 6 6 6 8 9 q q q w w t w w w u t w q 9 7 8 7 8 7 7 7 n * i 7 8 0 9 q q q q q w q q 8 w ",
"9 w 9 0 9 q 8 7 6 < > - > > 9 7 7 7 < 6 - 7 6 8 8 q q q w w w t u t t w t w w w q q 8 7 8 7 7 n + w 8 8 8 q q q 9 w w w t t w 9 ",
"w q q q 0 8 0 7 6 6 6 > > 7 9 6 7 q q - 6 7 8 8 q 8 w w t u t t u t t t u u w w w 9 8 q 6 7 q g + w 0 q 7 q w r w w r t t t q w ",
"w w w q q q q 8 0 0 7 1 > t q 7 6 w t 8 7 8 0 0 q w e w w t u u i t w i w w t w w w q 0 0 q q q + r w q 9 q e t q w u w e t q t ",
"0 0 q q q q q 0 q 0 0 0 - < 0 6 > 7 7 0 1 0 3 0 q q 4 4 1 0 q 7 7 7 7 q 0 0 0 q 8 7 0 3 < 1 < 0 + 0 0 0 0 7 0 0 4 7 0 0 7 7 7 0 ",
"q q q w q q e q q w w q r r r q r e r w q q w r t t w q 0 0 q q + w q q w q q q q q w w r q w q q r r q r r u w q q e q q q q e ",
"c c x j j j j k l j l l l c v N @.W B c c l M M M c z h h k h c - B c l l M v l l l c M c n M c v n M M B S S x l l k j j h v P ",
"i w 7 - * > - 6 7 6 7 8 q 0 9 w h j h 9 q 7 9 q w 9 6 > > 7 6 p * i 8 - * 6 6 7 6 7 6 6 7 9 7 8 0 7 e u i u w 8 7 6 > > - @ 9 j ",
"i 6 7 * * 6 - * 7 7 7 7 8 8 8 8 9 9 7 7 7 7 7 6 7 < - > > < > t @ 9 6 * + + - - - < 6 < 6 7 7 7 7 1 7 8 0 7 6 7 6 - - * @ @ 6 i ",
"i * * * - - 6 6 6 0 8 q 8 8 q 8 q q 7 9 q 7 9 7 7 < 6 > > > @ w * 9 & + * * * > < 6 6 7 7 7 0 7 8 0 0 q 7 7 7 6 6 6 6 - * * + i ",
"i * * * - 6 6 7 7 7 q q 9 q q w q q q w w 9 q 7 7 6 - 6 > > * q @ 6 + @ @ * > > < 7 7 7 7 0 q 9 9 4 q q 0 7 8 7 7 - - < - * - j ",
"t * > @ 6 - 7 7 7 q 7 q 9 w w w w q w q q q 7 7 0 7 6 6 > > > w * - + * > > 6 * 7 7 7 7 9 q q w w q q q q q 8 7 7 7 6 > > - 7 l ",
"w > 6 > 6 6 7 7 7 q q q w w w w t w t w q w 8 9 0 7 7 7 6 - - w * 6 @ * * > > > 7 7 9 q 9 w w w t y e w w q q 9 0 7 6 < > - 7 i ",
"w 9 9 - 6 7 7 0 q w q q r r r w u u t t w w 9 q 8 8 7 7 6 7 7 w * 7 7 - @ 6 > 7 < 0 0 q q w t t t y y u w q w q q 0 7 7 6 < q w ",
"q q q 7 7 7 0 0 w 0 w q w q q r t t w w e q q q q 7 0 7 7 9 9 q & q e < < 1 9 0 q q w e q w y u t a y t r r w q w w w q 7 q e q ",
"> - - - - - & - 6 - - - 6 6 - - * > > < - < - < < - - - - - - * O 1 - - < < < < - < < < < - < 7 , 2 < 1 7 < 7 3 1 < 3 < < < < < ",
"g i g r w r w i u u i i g u r 6 < d t p u p u p g g t t t w u s u s i u t r t u r r r r i r i p + y u t t w r w w u t t u u g g ",
"B M v j j j h p h j l l c l l u t c p p z c c z c c k h g h j n S M c j g h g i g g i i i h x 1.& m n u w t u u u u u i g g x B ",
"u u q q 8 9 q 9 q q q q q u w w 9 u 9 > < 7 9 8 w w 9 7 q 7 9 u i p t q 9 8 7 6 6 7 6 6 < 7 u v + b e < @ * @ * - > > > 7 7 9 w ",
"7 9 9 0 9 q w 9 q 8 8 8 7 q q q 7 q < > > < < 6 6 7 7 q 7 9 9 9 9 w 9 7 0 0 7 7 6 6 6 - - * 7 x + b & & @ @ * > > > 6 6 7 7 7 7 ",
"7 q q q 9 w 9 9 q 9 q 8 9 7 9 7 7 q * - > 6 6 6 7 8 8 9 w 9 q w w w q 9 q q 8 8 8 7 - > * * - i + f O * * * * > > > 7 6 7 7 7 7 ",
"q q w q w w w w q q q 8 7 7 9 < 7 7 @ > > < 7 7 6 8 w 9 q t w t t t w w q q 8 7 8 6 6 - 6 * * i & 5 o & + * > - > < 7 7 7 9 9 q ",
"w w w w t t w w w w q 8 q 9 9 9 < 7 > > < 6 8 6 8 8 w 9 w t w u t w w w w q 0 0 8 7 7 6 * * - i & 5 # * * * > 6 6 7 7 7 9 8 9 0 ",
"t t w t w t u u w w w w q q q 7 7 w 6 > < 7 7 8 8 q 9 t w t t i i i i t w w w q 9 7 6 6 6 > - u # 4 & & * * > < 6 7 8 7 7 q q q ",
"t t t t u u t i t t q e w u t 7 7 u 8 > 6 7 7 8 0 q w q w i i i i i i u u u r t w t e e 6 7 0 g $ 5 < * - > > > 6 7 9 q 9 q q w ",
"q q q w w w q q q q q q q t e > * e 7 < < < < 6 < 0 9 q q q w q w w q e q q 0 4 7 q q q < 7 q r o 3 , - < > < < < 1 7 9 7 0 0 q ",
"- - - - < - - - - - - > < > < * & * * * * * - * * * * * - - 6 * & - - - * * - * - = - * * - 7 6 X % = * * * - * - - - * * > < > ",
"i c j l c N N M n n E N P c k h p h g h h h g h l M N c i i l i * v j g i h h j c c n B B g r r f b b h h j k x c N P N z k k k ",
"j j p p j c c c c E c z j p i u t t u u t r w u i j p r w w u j > v i w q w w w w i j c j q w w y s a u u p u u i k x h i t i c ",
"p t t t w t t u i p u w t w w 9 q 7 7 7 9 7 7 7 8 7 6 6 6 6 6 u - i 9 > > < * > 6 7 8 0 8 7 8 7 1 2 4 7 7 9 w 9 9 9 w 9 w 9 w p ",
"i w t t t t t t t w t 9 t t w 9 q 9 q 8 9 7 7 7 7 6 6 - * 6 - w * w 6 - > > * > 6 7 6 7 6 7 7 6 1 4 4 4 9 q 9 w q q w w 9 w u i ",
"i w t t i t t t t t t t t w 9 w q q q 9 q 9 8 6 7 8 6 6 6 - * w * w - 6 - > > 7 6 7 7 7 8 8 8 8 , 3 4 9 9 w q 8 q w q w w w w i ",
"u u w t i i w w u u i t 9 t t w e 9 w q 9 8 q 9 8 7 7 6 < - 6 w * w 6 - - 6 6 - 6 7 6 7 7 7 8 q 4 4 4 8 w 9 q q w t w w t w i i ",
"w u t i u u w i u w i t u t t t t w 9 q q 9 8 8 6 7 8 6 > > - q + q * 6 - 7 6 7 8 7 6 7 7 7 9 q 4 5 4 q q q w 9 w u t w w t w i ",
"u w w i i i r i i t i t i u t t w t q q q 8 q 8 8 7 7 7 > 7 6 q * q 7 - - 6 7 7 7 w q 8 q 7 q q 4 4 5 e q w w q w t w w t t w i ",
"u u i i i g h s p i t i u i u i s g s r q 9 q 8 8 7 7 6 6 q r r * r q 6 - 7 - 7 6 8 8 8 q q q q 4 5 5 y u r r w w i t t u t p i ",
"8 6 7 0 6 - 7 0 4 7 7 8 6 7 6 < - < 0 1 - - 6 - < - < < < 7 7 < + 7 - - - & - - - - < < - < 7 < , , ; 2 1 7 7 < 7 7 7 7 7 7 4 7 ",
"0 8 7 7 0 0 7 0 7 7 7 0 7 8 7 - * 7 0 0 0 0 8 7 7 8 0 0 0 0 0 8 7 0 0 0 7 7 7 7 7 0 7 < 0 7 7 0 . ; 2 4 7 7 7 0 7 0 - 7 7 0 4 0 ",
"M c c c l l l l l l k l c l N w r M h l k l B Y F T M c n B v v c c c c M l l l c c l c c c c B X b b k l b l M | J K m x j m P ",
"q 9 8 q q q q q 7 7 7 7 7 6 r q 7 u u - < 7 8 q q w 8 0 0 q q q q q w w q w w w q w q w w w i c X e % : 1 7 7 8 r g t q q 9 0 q ",
"q 8 9 8 7 7 7 6 6 - - > > 6 7 9 6 0 7 * * * > > 6 - 6 7 7 7 8 6 7 9 7 9 7 q 0 q 7 q 0 9 q 9 w g . 3 # % * * * 6 6 7 7 7 7 7 1 7 ",
"8 q 7 8 9 7 7 7 6 - 7 6 > * 6 8 6 7 - * * > - < 6 7 6 6 7 7 7 8 7 q q q 7 q w q q q q q q 9 q i # 3 $ $ * - - 6 6 7 7 7 7 7 1 7 ",
"q 8 8 8 8 8 7 7 q w 7 > < > 7 8 > < * * * > > 6 7 7 7 6 6 8 8 q 0 q 7 9 w 9 t t q q q w w w w i # 3 $ - - 6 - 0 7 7 6 7 7 q 7 7 ",
"w t t q 8 8 q q 7 7 7 6 6 - 6 8 > 6 * - * > > 6 7 6 6 8 8 7 0 q q q w w 9 t u w t 9 t t t q 9 u # 3 $ & 6 - 6 7 7 8 6 q q q q w ",
"t t q 8 9 9 q 9 7 7 7 7 6 - 0 7 6 r 6 * - - - 7 6 * 7 7 8 7 q q w 9 e w 8 p t 8 q w t t w t t w . 5 = , 6 7 7 6 8 7 q q q q q y ",
"t t t t t y 9 q q 9 7 7 < 6 0 8 7 r 0 6 - 6 - 6 7 7 7 0 7 8 q q q w q q p t t w u u u w u t w u X 3 % : < 8 7 0 8 q q 9 q t q t ",
"u t t t t t q y 8 t r 0 6 7 r 8 7 r q 6 6 6 6 7 0 6 q q 7 q e q w u y t u t t u s g u t u i i r . 5 , , 0 0 q q w e e w e t y t ",
"1 < 1 < < < < < < 1 < < < < < - + - & & * + + * - & - * * @ - - - > > > : * - : * , < > - > - , . % % , - - 7 3 0 7 1 1 > < , < "
};
